<?xml version="1.0" encoding="utf-8" standalone="no"?>
<!DOCTYPE svg PUBLIC "-//W3C//DTD SVG 1.1//EN"
  "http://www.w3.org/Graphics/SVG/1.1/DTD/svg11.dtd">
<svg xmlns:xlink="http://www.w3.org/1999/xlink" width="613.19952pt" height="396pt" viewBox="0 0 613.19952 396" xmlns="http://www.w3.org/2000/svg" version="1.1">
 <metadata>
  <rdf:RDF xmlns:dc="http://purl.org/dc/elements/1.1/" xmlns:cc="http://creativecommons.org/ns#" xmlns:rdf="http://www.w3.org/1999/02/22-rdf-syntax-ns#">
   <cc:Work>
    <dc:type rdf:resource="http://purl.org/dc/dcmitype/StillImage"/>
    <dc:date>2026-04-17T21:25:35.713291</dc:date>
    <dc:format>image/svg+xml</dc:format>
    <dc:creator>
     <cc:Agent>
      <dc:title>Matplotlib v3.10.8, https://matplotlib.org/</dc:title>
     </cc:Agent>
    </dc:creator>
   </cc:Work>
  </rdf:RDF>
 </metadata>
 <defs>
  <style type="text/css">*{stroke-linejoin: round; stroke-linecap: butt}</style>
 </defs>
 <g id="figure_1">
  <g id="patch_1">
   <path d="M 0 396 
L 613.19952 396 
L 613.19952 -0 
L 0 -0 
z
" style="fill: #ffffff"/>
  </g>
  <g id="axes_1">
   <g id="patch_2">
    <path d="M 58.795078 357.797422 
L 591.59952 357.797422 
L 591.59952 41.791562 
L 58.795078 41.791562 
z
" style="fill: #ffffff"/>
   </g>
   <g id="matplotlib.axis_1">
    <g id="xtick_1">
     <g id="text_1">
      <!-- Control -->
      <g style="fill: #0f172a" transform="translate(130.672772 372.313125) scale(0.105 -0.105)">
       <defs>
        <path id="ArialMT-43" d="M 3763 1606 
L 4369 1453 
Q 4178 706 3683 314 
Q 3188 -78 2472 -78 
Q 1731 -78 1267 223 
Q 803 525 561 1097 
Q 319 1669 319 2325 
Q 319 3041 592 3573 
Q 866 4106 1370 4382 
Q 1875 4659 2481 4659 
Q 3169 4659 3637 4309 
Q 4106 3959 4291 3325 
L 3694 3184 
Q 3534 3684 3231 3912 
Q 2928 4141 2469 4141 
Q 1941 4141 1586 3887 
Q 1231 3634 1087 3207 
Q 944 2781 944 2328 
Q 944 1744 1114 1308 
Q 1284 872 1643 656 
Q 2003 441 2422 441 
Q 2931 441 3284 734 
Q 3638 1028 3763 1606 
z
" transform="scale(0.015625)"/>
        <path id="ArialMT-6f" d="M 213 1659 
Q 213 2581 725 3025 
Q 1153 3394 1769 3394 
Q 2453 3394 2887 2945 
Q 3322 2497 3322 1706 
Q 3322 1066 3130 698 
Q 2938 331 2570 128 
Q 2203 -75 1769 -75 
Q 1072 -75 642 372 
Q 213 819 213 1659 
z
M 791 1659 
Q 791 1022 1069 705 
Q 1347 388 1769 388 
Q 2188 388 2466 706 
Q 2744 1025 2744 1678 
Q 2744 2294 2464 2611 
Q 2184 2928 1769 2928 
Q 1347 2928 1069 2612 
Q 791 2297 791 1659 
z
" transform="scale(0.015625)"/>
        <path id="ArialMT-6e" d="M 422 0 
L 422 3319 
L 928 3319 
L 928 2847 
Q 1294 3394 1984 3394 
Q 2284 3394 2536 3286 
Q 2788 3178 2913 3003 
Q 3038 2828 3088 2588 
Q 3119 2431 3119 2041 
L 3119 0 
L 2556 0 
L 2556 2019 
Q 2556 2363 2490 2533 
Q 2425 2703 2258 2804 
Q 2091 2906 1866 2906 
Q 1506 2906 1245 2678 
Q 984 2450 984 1813 
L 984 0 
L 422 0 
z
" transform="scale(0.015625)"/>
        <path id="ArialMT-74" d="M 1650 503 
L 1731 6 
Q 1494 -44 1306 -44 
Q 1000 -44 831 53 
Q 663 150 594 308 
Q 525 466 525 972 
L 525 2881 
L 113 2881 
L 113 3319 
L 525 3319 
L 525 4141 
L 1084 4478 
L 1084 3319 
L 1650 3319 
L 1650 2881 
L 1084 2881 
L 1084 941 
Q 1084 700 1114 631 
Q 1144 563 1211 522 
Q 1278 481 1403 481 
Q 1497 481 1650 503 
z
" transform="scale(0.015625)"/>
        <path id="ArialMT-72" d="M 416 0 
L 416 3319 
L 922 3319 
L 922 2816 
Q 1116 3169 1280 3281 
Q 1444 3394 1641 3394 
Q 1925 3394 2219 3213 
L 2025 2691 
Q 1819 2813 1613 2813 
Q 1428 2813 1281 2702 
Q 1134 2591 1072 2394 
Q 978 2094 978 1738 
L 978 0 
L 416 0 
z
" transform="scale(0.015625)"/>
        <path id="ArialMT-6c" d="M 409 0 
L 409 4581 
L 972 4581 
L 972 0 
L 409 0 
z
" transform="scale(0.015625)"/>
       </defs>
       <use xlink:href="#ArialMT-43"/>
       <use xlink:href="#ArialMT-6f" transform="translate(72.216797 0)"/>
       <use xlink:href="#ArialMT-6e" transform="translate(127.832031 0)"/>
       <use xlink:href="#ArialMT-74" transform="translate(183.447266 0)"/>
       <use xlink:href="#ArialMT-72" transform="translate(211.230469 0)"/>
       <use xlink:href="#ArialMT-6f" transform="translate(244.53125 0)"/>
       <use xlink:href="#ArialMT-6c" transform="translate(300.146484 0)"/>
      </g>
     </g>
    </g>
    <g id="xtick_2">
     <g id="text_2">
      <!-- Treatment B -->
      <g style="fill: #0f172a" transform="translate(296.510971 372.313125) scale(0.105 -0.105)">
       <defs>
        <path id="ArialMT-54" d="M 1659 0 
L 1659 4041 
L 150 4041 
L 150 4581 
L 3781 4581 
L 3781 4041 
L 2266 4041 
L 2266 0 
L 1659 0 
z
" transform="scale(0.015625)"/>
        <path id="ArialMT-65" d="M 2694 1069 
L 3275 997 
Q 3138 488 2766 206 
Q 2394 -75 1816 -75 
Q 1088 -75 661 373 
Q 234 822 234 1631 
Q 234 2469 665 2931 
Q 1097 3394 1784 3394 
Q 2450 3394 2872 2941 
Q 3294 2488 3294 1666 
Q 3294 1616 3291 1516 
L 816 1516 
Q 847 969 1125 678 
Q 1403 388 1819 388 
Q 2128 388 2347 550 
Q 2566 713 2694 1069 
z
M 847 1978 
L 2700 1978 
Q 2663 2397 2488 2606 
Q 2219 2931 1791 2931 
Q 1403 2931 1139 2672 
Q 875 2413 847 1978 
z
" transform="scale(0.015625)"/>
        <path id="ArialMT-61" d="M 2588 409 
Q 2275 144 1986 34 
Q 1697 -75 1366 -75 
Q 819 -75 525 192 
Q 231 459 231 875 
Q 231 1119 342 1320 
Q 453 1522 633 1644 
Q 813 1766 1038 1828 
Q 1203 1872 1538 1913 
Q 2219 1994 2541 2106 
Q 2544 2222 2544 2253 
Q 2544 2597 2384 2738 
Q 2169 2928 1744 2928 
Q 1347 2928 1158 2789 
Q 969 2650 878 2297 
L 328 2372 
Q 403 2725 575 2942 
Q 747 3159 1072 3276 
Q 1397 3394 1825 3394 
Q 2250 3394 2515 3294 
Q 2781 3194 2906 3042 
Q 3031 2891 3081 2659 
Q 3109 2516 3109 2141 
L 3109 1391 
Q 3109 606 3145 398 
Q 3181 191 3288 0 
L 2700 0 
Q 2613 175 2588 409 
z
M 2541 1666 
Q 2234 1541 1622 1453 
Q 1275 1403 1131 1340 
Q 988 1278 909 1158 
Q 831 1038 831 891 
Q 831 666 1001 516 
Q 1172 366 1500 366 
Q 1825 366 2078 508 
Q 2331 650 2450 897 
Q 2541 1088 2541 1459 
L 2541 1666 
z
" transform="scale(0.015625)"/>
        <path id="ArialMT-6d" d="M 422 0 
L 422 3319 
L 925 3319 
L 925 2853 
Q 1081 3097 1340 3245 
Q 1600 3394 1931 3394 
Q 2300 3394 2536 3241 
Q 2772 3088 2869 2813 
Q 3263 3394 3894 3394 
Q 4388 3394 4653 3120 
Q 4919 2847 4919 2278 
L 4919 0 
L 4359 0 
L 4359 2091 
Q 4359 2428 4304 2576 
Q 4250 2725 4106 2815 
Q 3963 2906 3769 2906 
Q 3419 2906 3187 2673 
Q 2956 2441 2956 1928 
L 2956 0 
L 2394 0 
L 2394 2156 
Q 2394 2531 2256 2718 
Q 2119 2906 1806 2906 
Q 1569 2906 1367 2781 
Q 1166 2656 1075 2415 
Q 984 2175 984 1722 
L 984 0 
L 422 0 
z
" transform="scale(0.015625)"/>
        <path id="ArialMT-20" transform="scale(0.015625)"/>
        <path id="ArialMT-42" d="M 469 0 
L 469 4581 
L 2188 4581 
Q 2713 4581 3030 4442 
Q 3347 4303 3526 4014 
Q 3706 3725 3706 3409 
Q 3706 3116 3547 2856 
Q 3388 2597 3066 2438 
Q 3481 2316 3704 2022 
Q 3928 1728 3928 1328 
Q 3928 1006 3792 729 
Q 3656 453 3456 303 
Q 3256 153 2954 76 
Q 2653 0 2216 0 
L 469 0 
z
M 1075 2656 
L 2066 2656 
Q 2469 2656 2644 2709 
Q 2875 2778 2992 2937 
Q 3109 3097 3109 3338 
Q 3109 3566 3000 3739 
Q 2891 3913 2687 3977 
Q 2484 4041 1991 4041 
L 1075 4041 
L 1075 2656 
z
M 1075 541 
L 2216 541 
Q 2509 541 2628 563 
Q 2838 600 2978 687 
Q 3119 775 3209 942 
Q 3300 1109 3300 1328 
Q 3300 1584 3169 1773 
Q 3038 1963 2805 2039 
Q 2572 2116 2134 2116 
L 1075 2116 
L 1075 541 
z
" transform="scale(0.015625)"/>
       </defs>
       <use xlink:href="#ArialMT-54"/>
       <use xlink:href="#ArialMT-72" transform="translate(57.333984 0)"/>
       <use xlink:href="#ArialMT-65" transform="translate(90.634766 0)"/>
       <use xlink:href="#ArialMT-61" transform="translate(146.25 0)"/>
       <use xlink:href="#ArialMT-74" transform="translate(201.865234 0)"/>
       <use xlink:href="#ArialMT-6d" transform="translate(229.648438 0)"/>
       <use xlink:href="#ArialMT-65" transform="translate(312.949219 0)"/>
       <use xlink:href="#ArialMT-6e" transform="translate(368.564453 0)"/>
       <use xlink:href="#ArialMT-74" transform="translate(424.179688 0)"/>
       <use xlink:href="#ArialMT-20" transform="translate(451.962891 0)"/>
       <use xlink:href="#ArialMT-42" transform="translate(479.746094 0)"/>
      </g>
     </g>
    </g>
    <g id="xtick_3">
     <g id="text_3">
      <!-- Treatment A -->
      <g style="fill: #0f172a" transform="translate(474.401202 372.313125) scale(0.105 -0.105)">
       <defs>
        <path id="ArialMT-41" d="M -9 0 
L 1750 4581 
L 2403 4581 
L 4278 0 
L 3588 0 
L 3053 1388 
L 1138 1388 
L 634 0 
L -9 0 
z
M 1313 1881 
L 2866 1881 
L 2388 3150 
Q 2169 3728 2063 4100 
Q 1975 3659 1816 3225 
L 1313 1881 
z
" transform="scale(0.015625)"/>
       </defs>
       <use xlink:href="#ArialMT-54"/>
       <use xlink:href="#ArialMT-72" transform="translate(57.333984 0)"/>
       <use xlink:href="#ArialMT-65" transform="translate(90.634766 0)"/>
       <use xlink:href="#ArialMT-61" transform="translate(146.25 0)"/>
       <use xlink:href="#ArialMT-74" transform="translate(201.865234 0)"/>
       <use xlink:href="#ArialMT-6d" transform="translate(229.648438 0)"/>
       <use xlink:href="#ArialMT-65" transform="translate(312.949219 0)"/>
       <use xlink:href="#ArialMT-6e" transform="translate(368.564453 0)"/>
       <use xlink:href="#ArialMT-74" transform="translate(424.179688 0)"/>
       <use xlink:href="#ArialMT-20" transform="translate(451.962891 0)"/>
       <use xlink:href="#ArialMT-41" transform="translate(474.246094 0)"/>
      </g>
     </g>
    </g>
   </g>
   <g id="matplotlib.axis_2">
    <g id="ytick_1">
     <g id="text_4">
      <!-- 2 -->
      <g style="fill: #0f172a" transform="translate(45.956094 309.49186) scale(0.105 -0.105)">
       <defs>
        <path id="ArialMT-32" d="M 3222 541 
L 3222 0 
L 194 0 
Q 188 203 259 391 
Q 375 700 629 1000 
Q 884 1300 1366 1694 
Q 2113 2306 2375 2664 
Q 2638 3022 2638 3341 
Q 2638 3675 2398 3904 
Q 2159 4134 1775 4134 
Q 1369 4134 1125 3890 
Q 881 3647 878 3216 
L 300 3275 
Q 359 3922 746 4261 
Q 1134 4600 1788 4600 
Q 2447 4600 2831 4234 
Q 3216 3869 3216 3328 
Q 3216 3053 3103 2787 
Q 2991 2522 2730 2228 
Q 2469 1934 1863 1422 
Q 1356 997 1212 845 
Q 1069 694 975 541 
L 3222 541 
z
" transform="scale(0.015625)"/>
       </defs>
       <use xlink:href="#ArialMT-32"/>
      </g>
     </g>
    </g>
    <g id="ytick_2">
     <g id="text_5">
      <!-- 4 -->
      <g style="fill: #0f172a" transform="translate(45.956094 256.350997) scale(0.105 -0.105)">
       <defs>
        <path id="ArialMT-34" d="M 2069 0 
L 2069 1097 
L 81 1097 
L 81 1613 
L 2172 4581 
L 2631 4581 
L 2631 1613 
L 3250 1613 
L 3250 1097 
L 2631 1097 
L 2631 0 
L 2069 0 
z
M 2069 1613 
L 2069 3678 
L 634 1613 
L 2069 1613 
z
" transform="scale(0.015625)"/>
       </defs>
       <use xlink:href="#ArialMT-34"/>
      </g>
     </g>
    </g>
    <g id="ytick_3">
     <g id="text_6">
      <!-- 6 -->
      <g style="fill: #0f172a" transform="translate(45.956094 203.210135) scale(0.105 -0.105)">
       <defs>
        <path id="ArialMT-36" d="M 3184 3459 
L 2625 3416 
Q 2550 3747 2413 3897 
Q 2184 4138 1850 4138 
Q 1581 4138 1378 3988 
Q 1113 3794 959 3422 
Q 806 3050 800 2363 
Q 1003 2672 1297 2822 
Q 1591 2972 1913 2972 
Q 2475 2972 2870 2558 
Q 3266 2144 3266 1488 
Q 3266 1056 3080 686 
Q 2894 316 2569 119 
Q 2244 -78 1831 -78 
Q 1128 -78 684 439 
Q 241 956 241 2144 
Q 241 3472 731 4075 
Q 1159 4600 1884 4600 
Q 2425 4600 2770 4297 
Q 3116 3994 3184 3459 
z
M 888 1484 
Q 888 1194 1011 928 
Q 1134 663 1356 523 
Q 1578 384 1822 384 
Q 2178 384 2434 671 
Q 2691 959 2691 1453 
Q 2691 1928 2437 2201 
Q 2184 2475 1800 2475 
Q 1419 2475 1153 2201 
Q 888 1928 888 1484 
z
" transform="scale(0.015625)"/>
       </defs>
       <use xlink:href="#ArialMT-36"/>
      </g>
     </g>
    </g>
    <g id="ytick_4">
     <g id="text_7">
      <!-- 8 -->
      <g style="fill: #0f172a" transform="translate(45.956094 150.069273) scale(0.105 -0.105)">
       <defs>
        <path id="ArialMT-38" d="M 1131 2484 
Q 781 2613 612 2850 
Q 444 3088 444 3419 
Q 444 3919 803 4259 
Q 1163 4600 1759 4600 
Q 2359 4600 2725 4251 
Q 3091 3903 3091 3403 
Q 3091 3084 2923 2848 
Q 2756 2613 2416 2484 
Q 2838 2347 3058 2040 
Q 3278 1734 3278 1309 
Q 3278 722 2862 322 
Q 2447 -78 1769 -78 
Q 1091 -78 675 323 
Q 259 725 259 1325 
Q 259 1772 486 2073 
Q 713 2375 1131 2484 
z
M 1019 3438 
Q 1019 3113 1228 2906 
Q 1438 2700 1772 2700 
Q 2097 2700 2305 2904 
Q 2513 3109 2513 3406 
Q 2513 3716 2298 3927 
Q 2084 4138 1766 4138 
Q 1444 4138 1231 3931 
Q 1019 3725 1019 3438 
z
M 838 1322 
Q 838 1081 952 856 
Q 1066 631 1291 507 
Q 1516 384 1775 384 
Q 2178 384 2440 643 
Q 2703 903 2703 1303 
Q 2703 1709 2433 1975 
Q 2163 2241 1756 2241 
Q 1359 2241 1098 1978 
Q 838 1716 838 1322 
z
" transform="scale(0.015625)"/>
       </defs>
       <use xlink:href="#ArialMT-38"/>
      </g>
     </g>
    </g>
    <g id="ytick_5">
     <g id="text_8">
      <!-- 10 -->
      <g style="fill: #0f172a" transform="translate(40.117109 96.928411) scale(0.105 -0.105)">
       <defs>
        <path id="ArialMT-31" d="M 2384 0 
L 1822 0 
L 1822 3584 
Q 1619 3391 1289 3197 
Q 959 3003 697 2906 
L 697 3450 
Q 1169 3672 1522 3987 
Q 1875 4303 2022 4600 
L 2384 4600 
L 2384 0 
z
" transform="scale(0.015625)"/>
        <path id="ArialMT-30" d="M 266 2259 
Q 266 3072 433 3567 
Q 600 4063 929 4331 
Q 1259 4600 1759 4600 
Q 2128 4600 2406 4451 
Q 2684 4303 2865 4023 
Q 3047 3744 3150 3342 
Q 3253 2941 3253 2259 
Q 3253 1453 3087 958 
Q 2922 463 2592 192 
Q 2263 -78 1759 -78 
Q 1097 -78 719 397 
Q 266 969 266 2259 
z
M 844 2259 
Q 844 1131 1108 757 
Q 1372 384 1759 384 
Q 2147 384 2411 759 
Q 2675 1134 2675 2259 
Q 2675 3391 2411 3762 
Q 2147 4134 1753 4134 
Q 1366 4134 1134 3806 
Q 844 3388 844 2259 
z
" transform="scale(0.015625)"/>
       </defs>
       <use xlink:href="#ArialMT-31"/>
       <use xlink:href="#ArialMT-30" transform="translate(55.615234 0)"/>
      </g>
     </g>
    </g>
    <g id="text_9">
     <!-- Response Value -->
     <g style="fill: #262626" transform="translate(29.831484 241.56375) rotate(-90) scale(0.115 -0.115)">
      <defs>
       <path id="ArialMT-52" d="M 503 0 
L 503 4581 
L 2534 4581 
Q 3147 4581 3465 4457 
Q 3784 4334 3975 4021 
Q 4166 3709 4166 3331 
Q 4166 2844 3850 2509 
Q 3534 2175 2875 2084 
Q 3116 1969 3241 1856 
Q 3506 1613 3744 1247 
L 4541 0 
L 3778 0 
L 3172 953 
Q 2906 1366 2734 1584 
Q 2563 1803 2427 1890 
Q 2291 1978 2150 2013 
Q 2047 2034 1813 2034 
L 1109 2034 
L 1109 0 
L 503 0 
z
M 1109 2559 
L 2413 2559 
Q 2828 2559 3062 2645 
Q 3297 2731 3419 2920 
Q 3541 3109 3541 3331 
Q 3541 3656 3305 3865 
Q 3069 4075 2559 4075 
L 1109 4075 
L 1109 2559 
z
" transform="scale(0.015625)"/>
       <path id="ArialMT-73" d="M 197 991 
L 753 1078 
Q 800 744 1014 566 
Q 1228 388 1613 388 
Q 2000 388 2187 545 
Q 2375 703 2375 916 
Q 2375 1106 2209 1216 
Q 2094 1291 1634 1406 
Q 1016 1563 777 1677 
Q 538 1791 414 1992 
Q 291 2194 291 2438 
Q 291 2659 392 2848 
Q 494 3038 669 3163 
Q 800 3259 1026 3326 
Q 1253 3394 1513 3394 
Q 1903 3394 2198 3281 
Q 2494 3169 2634 2976 
Q 2775 2784 2828 2463 
L 2278 2388 
Q 2241 2644 2061 2787 
Q 1881 2931 1553 2931 
Q 1166 2931 1000 2803 
Q 834 2675 834 2503 
Q 834 2394 903 2306 
Q 972 2216 1119 2156 
Q 1203 2125 1616 2013 
Q 2213 1853 2448 1751 
Q 2684 1650 2818 1456 
Q 2953 1263 2953 975 
Q 2953 694 2789 445 
Q 2625 197 2315 61 
Q 2006 -75 1616 -75 
Q 969 -75 630 194 
Q 291 463 197 991 
z
" transform="scale(0.015625)"/>
       <path id="ArialMT-70" d="M 422 -1272 
L 422 3319 
L 934 3319 
L 934 2888 
Q 1116 3141 1344 3267 
Q 1572 3394 1897 3394 
Q 2322 3394 2647 3175 
Q 2972 2956 3137 2557 
Q 3303 2159 3303 1684 
Q 3303 1175 3120 767 
Q 2938 359 2589 142 
Q 2241 -75 1856 -75 
Q 1575 -75 1351 44 
Q 1128 163 984 344 
L 984 -1272 
L 422 -1272 
z
M 931 1641 
Q 931 1000 1190 694 
Q 1450 388 1819 388 
Q 2194 388 2461 705 
Q 2728 1022 2728 1688 
Q 2728 2322 2467 2637 
Q 2206 2953 1844 2953 
Q 1484 2953 1207 2617 
Q 931 2281 931 1641 
z
" transform="scale(0.015625)"/>
       <path id="ArialMT-56" d="M 1803 0 
L 28 4581 
L 684 4581 
L 1875 1253 
Q 2019 853 2116 503 
Q 2222 878 2363 1253 
L 3600 4581 
L 4219 4581 
L 2425 0 
L 1803 0 
z
" transform="scale(0.015625)"/>
       <path id="ArialMT-75" d="M 2597 0 
L 2597 488 
Q 2209 -75 1544 -75 
Q 1250 -75 995 37 
Q 741 150 617 320 
Q 494 491 444 738 
Q 409 903 409 1263 
L 409 3319 
L 972 3319 
L 972 1478 
Q 972 1038 1006 884 
Q 1059 663 1231 536 
Q 1403 409 1656 409 
Q 1909 409 2131 539 
Q 2353 669 2445 892 
Q 2538 1116 2538 1541 
L 2538 3319 
L 3100 3319 
L 3100 0 
L 2597 0 
z
" transform="scale(0.015625)"/>
      </defs>
      <use xlink:href="#ArialMT-52"/>
      <use xlink:href="#ArialMT-65" transform="translate(72.216797 0)"/>
      <use xlink:href="#ArialMT-73" transform="translate(127.832031 0)"/>
      <use xlink:href="#ArialMT-70" transform="translate(177.832031 0)"/>
      <use xlink:href="#ArialMT-6f" transform="translate(233.447266 0)"/>
      <use xlink:href="#ArialMT-6e" transform="translate(289.0625 0)"/>
      <use xlink:href="#ArialMT-73" transform="translate(344.677734 0)"/>
      <use xlink:href="#ArialMT-65" transform="translate(394.677734 0)"/>
      <use xlink:href="#ArialMT-20" transform="translate(450.292969 0)"/>
      <use xlink:href="#ArialMT-56" transform="translate(478.076172 0)"/>
      <use xlink:href="#ArialMT-61" transform="translate(537.400391 0)"/>
      <use xlink:href="#ArialMT-6c" transform="translate(593.015625 0)"/>
      <use xlink:href="#ArialMT-75" transform="translate(615.232422 0)"/>
      <use xlink:href="#ArialMT-65" transform="translate(670.847656 0)"/>
     </g>
    </g>
   </g>
   <g id="FillBetweenPolyCollection_1">
    <defs>
     <path id="m70b35ac8d6" d="M 147.978488 -52.566481 
L 147.213149 -52.566481 
L 147.081616 -55.191743 
L 146.917998 -57.817006 
L 146.719149 -60.442268 
L 146.483104 -63.067531 
L 146.209513 -65.692793 
L 145.899978 -68.318056 
L 145.55823 -70.943318 
L 145.190067 -73.568581 
L 144.802992 -76.193843 
L 144.405514 -78.819106 
L 144.006111 -81.444368 
L 143.611914 -84.069631 
L 143.227191 -86.694893 
L 142.851806 -89.320156 
L 142.479819 -91.945418 
L 142.098442 -94.570681 
L 141.687573 -97.195943 
L 141.220067 -99.821206 
L 140.662892 -102.446468 
L 139.979182 -105.071731 
L 139.13113 -107.696993 
L 138.083524 -110.322256 
L 136.807604 -112.947518 
L 135.284864 -115.572781 
L 133.510312 -118.198043 
L 131.494763 -120.823306 
L 129.265771 -123.448568 
L 126.866956 -126.073831 
L 124.355657 -128.699093 
L 121.799061 -131.324356 
L 119.269149 -133.949618 
L 116.836975 -136.574881 
L 114.566895 -139.200143 
L 112.511382 -141.825406 
L 110.706977 -144.450668 
L 109.17181 -147.075931 
L 107.904879 -149.701193 
L 106.88712 -152.326456 
L 106.084038 -154.951718 
L 105.449552 -157.576981 
L 104.930601 -160.202243 
L 104.472017 -162.827506 
L 104.02124 -165.452768 
L 103.532491 -168.078031 
L 102.970154 -170.703293 
L 102.311206 -173.328556 
L 101.546621 -175.953818 
L 100.681755 -178.579081 
L 99.735726 -181.204343 
L 98.739863 -183.829606 
L 97.735302 -186.454868 
L 96.769836 -189.080131 
L 95.894214 -191.705393 
L 95.158105 -194.330656 
L 94.606086 -196.955918 
L 94.273995 -199.581181 
L 94.186085 -202.206443 
L 94.353318 -204.831706 
L 94.773049 -207.456968 
L 95.430202 -210.082231 
L 96.299802 -212.707493 
L 97.350544 -215.332755 
L 98.548916 -217.958018 
L 99.863288 -220.58328 
L 101.267388 -223.208543 
L 102.742676 -225.833805 
L 104.279324 -228.459068 
L 105.875705 -231.08433 
L 107.536557 -233.709593 
L 109.270187 -236.334855 
L 111.085196 -238.960118 
L 112.987283 -241.58538 
L 114.976621 -244.210643 
L 117.046184 -246.835905 
L 119.181233 -249.461168 
L 121.359964 -252.08643 
L 123.555143 -254.711693 
L 125.736417 -257.336955 
L 127.872911 -259.962218 
L 129.935709 -262.58748 
L 131.899908 -265.212743 
L 133.745997 -267.838005 
L 135.460487 -270.463268 
L 137.035826 -273.08853 
L 138.469735 -275.713793 
L 139.764175 -278.339055 
L 140.924165 -280.964318 
L 141.956653 -283.58958 
L 142.869575 -286.214843 
L 143.671189 -288.840105 
L 144.369686 -291.465368 
L 144.973039 -294.09063 
L 145.48901 -296.715893 
L 145.925242 -299.341155 
L 146.289352 -301.966418 
L 146.588981 -304.59168 
L 146.831773 -307.216943 
L 147.025286 -309.842205 
L 147.176852 -312.467468 
L 148.014785 -312.467468 
L 148.014785 -312.467468 
L 148.166351 -309.842205 
L 148.359864 -307.216943 
L 148.602656 -304.59168 
L 148.902285 -301.966418 
L 149.266395 -299.341155 
L 149.702627 -296.715893 
L 150.218598 -294.09063 
L 150.821951 -291.465368 
L 151.520448 -288.840105 
L 152.322062 -286.214843 
L 153.234984 -283.58958 
L 154.267472 -280.964318 
L 155.427462 -278.339055 
L 156.721902 -275.713793 
L 158.155811 -273.08853 
L 159.73115 -270.463268 
L 161.44564 -267.838005 
L 163.291729 -265.212743 
L 165.255928 -262.58748 
L 167.318726 -259.962218 
L 169.45522 -257.336955 
L 171.636494 -254.711693 
L 173.831673 -252.08643 
L 176.010404 -249.461168 
L 178.145453 -246.835905 
L 180.215016 -244.210643 
L 182.204354 -241.58538 
L 184.106441 -238.960118 
L 185.92145 -236.334855 
L 187.65508 -233.709593 
L 189.315932 -231.08433 
L 190.912313 -228.459068 
L 192.448961 -225.833805 
L 193.924249 -223.208543 
L 195.328348 -220.58328 
L 196.64272 -217.958018 
L 197.841093 -215.332755 
L 198.891835 -212.707493 
L 199.761435 -210.082231 
L 200.418588 -207.456968 
L 200.838319 -204.831706 
L 201.005551 -202.206443 
L 200.917642 -199.581181 
L 200.585551 -196.955918 
L 200.033532 -194.330656 
L 199.297423 -191.705393 
L 198.421801 -189.080131 
L 197.456335 -186.454868 
L 196.451774 -183.829606 
L 195.455911 -181.204343 
L 194.509881 -178.579081 
L 193.645015 -175.953818 
L 192.880431 -173.328556 
L 192.221483 -170.703293 
L 191.659146 -168.078031 
L 191.170397 -165.452768 
L 190.71962 -162.827506 
L 190.261036 -160.202243 
L 189.742084 -157.576981 
L 189.107599 -154.951718 
L 188.304517 -152.326456 
L 187.286758 -149.701193 
L 186.019827 -147.075931 
L 184.484659 -144.450668 
L 182.680255 -141.825406 
L 180.624742 -139.200143 
L 178.354662 -136.574881 
L 175.922487 -133.949618 
L 173.392576 -131.324356 
L 170.83598 -128.699093 
L 168.324681 -126.073831 
L 165.925866 -123.448568 
L 163.696874 -120.823306 
L 161.681325 -118.198043 
L 159.906773 -115.572781 
L 158.384033 -112.947518 
L 157.108113 -110.322256 
L 156.060507 -107.696993 
L 155.212455 -105.071731 
L 154.528745 -102.446468 
L 153.97157 -99.821206 
L 153.504064 -97.195943 
L 153.093195 -94.570681 
L 152.711818 -91.945418 
L 152.33983 -89.320156 
L 151.964446 -86.694893 
L 151.579723 -84.069631 
L 151.185525 -81.444368 
L 150.786123 -78.819106 
L 150.388645 -76.193843 
L 150.00157 -73.568581 
L 149.633407 -70.943318 
L 149.291659 -68.318056 
L 148.982124 -65.692793 
L 148.708533 -63.067531 
L 148.472488 -60.442268 
L 148.273638 -57.817006 
L 148.110021 -55.191743 
L 147.978488 -52.566481 
z
" style="stroke: #525252; stroke-width: 0.8"/>
    </defs>
    <g clip-path="url(#p7213baa3f4)">
     <use xlink:href="#m70b35ac8d6" x="0" y="396" style="fill: #3469dc; stroke: #525252; stroke-width: 0.8"/>
    </g>
   </g>
   <g id="FillBetweenPolyCollection_2">
    <defs>
     <path id="mc599ef6716" d="M 325.976514 -82.074933 
L 324.418084 -82.074933 
L 324.082062 -84.678666 
L 323.636138 -87.2824 
L 323.059273 -89.886133 
L 322.331812 -92.489866 
L 321.437515 -95.0936 
L 320.365658 -97.697333 
L 319.112923 -100.301066 
L 317.684725 -102.9048 
L 316.095648 -105.508533 
L 314.368787 -108.112266 
L 312.533936 -110.716 
L 310.624771 -113.319733 
L 308.67539 -115.923466 
L 306.716709 -118.5272 
L 304.77328 -121.130933 
L 302.861019 -123.734666 
L 300.986179 -126.3384 
L 299.145639 -128.942133 
L 297.328339 -131.545867 
L 295.517471 -134.1496 
L 293.69297 -136.753333 
L 291.833864 -139.357067 
L 289.920243 -141.9608 
L 287.934813 -144.564533 
L 285.864211 -147.168267 
L 283.700387 -149.772 
L 281.442302 -152.375733 
L 279.098013 -154.979467 
L 276.686924 -157.5832 
L 274.241668 -160.186933 
L 271.808928 -162.790667 
L 269.448479 -165.3944 
L 267.23004 -167.998133 
L 265.227915 -170.601867 
L 263.514043 -173.2056 
L 262.1505 -175.809334 
L 261.182828 -178.413067 
L 260.635536 -181.0168 
L 260.510714 -183.620534 
L 260.7901 -186.224267 
L 261.440165 -188.828 
L 262.4191 -191.431734 
L 263.684191 -194.035467 
L 265.197994 -196.6392 
L 266.932033 -199.242934 
L 268.867392 -201.846667 
L 270.992264 -204.4504 
L 273.297265 -207.054134 
L 275.769776 -209.657867 
L 278.388743 -212.2616 
L 281.121229 -214.865334 
L 283.921548 -217.469067 
L 286.733248 -220.072801 
L 289.493607 -222.676534 
L 292.139821 -225.280267 
L 294.615782 -227.884001 
L 296.878304 -230.487734 
L 298.901784 -233.091467 
L 300.680648 -235.695201 
L 302.229267 -238.298934 
L 303.579462 -240.902667 
L 304.776021 -243.506401 
L 305.870893 -246.110134 
L 306.916854 -248.713867 
L 307.961447 -251.317601 
L 309.041911 -253.921334 
L 310.181637 -256.525067 
L 311.388496 -259.128801 
L 312.655087 -261.732534 
L 313.960735 -264.336268 
L 315.274863 -266.940001 
L 316.561188 -269.543734 
L 317.782188 -272.147468 
L 318.903264 -274.751201 
L 319.896177 -277.354934 
L 320.741455 -279.958668 
L 321.429659 -282.562401 
L 321.961545 -285.166134 
L 322.347249 -287.769868 
L 322.604712 -290.373601 
L 322.757598 -292.977334 
L 322.832923 -295.581068 
L 322.858621 -298.184801 
L 322.861264 -300.788534 
L 322.864084 -303.392268 
L 322.885471 -305.996001 
L 322.938046 -308.599735 
L 323.02835 -311.203468 
L 323.157172 -313.807201 
L 323.320397 -316.410935 
L 323.510264 -319.014668 
L 323.716826 -321.618401 
L 323.929417 -324.222135 
L 324.137953 -326.825868 
L 324.333922 -329.429601 
L 324.510992 -332.033335 
L 324.665238 -334.637068 
L 324.795037 -337.240801 
L 324.900713 -339.844535 
L 325.493885 -339.844535 
L 325.493885 -339.844535 
L 325.599561 -337.240801 
L 325.72936 -334.637068 
L 325.883606 -332.033335 
L 326.060676 -329.429601 
L 326.256645 -326.825868 
L 326.465182 -324.222135 
L 326.677772 -321.618401 
L 326.884334 -319.014668 
L 327.074201 -316.410935 
L 327.237426 -313.807201 
L 327.366248 -311.203468 
L 327.456552 -308.599735 
L 327.509127 -305.996001 
L 327.530514 -303.392268 
L 327.533334 -300.788534 
L 327.535977 -298.184801 
L 327.561675 -295.581068 
L 327.637 -292.977334 
L 327.789887 -290.373601 
L 328.04735 -287.769868 
L 328.433053 -285.166134 
L 328.964939 -282.562401 
L 329.653144 -279.958668 
L 330.498421 -277.354934 
L 331.491334 -274.751201 
L 332.612411 -272.147468 
L 333.83341 -269.543734 
L 335.119735 -266.940001 
L 336.433863 -264.336268 
L 337.739511 -261.732534 
L 339.006102 -259.128801 
L 340.212962 -256.525067 
L 341.352688 -253.921334 
L 342.433151 -251.317601 
L 343.477744 -248.713867 
L 344.523705 -246.110134 
L 345.618577 -243.506401 
L 346.815136 -240.902667 
L 348.165331 -238.298934 
L 349.71395 -235.695201 
L 351.492814 -233.091467 
L 353.516294 -230.487734 
L 355.778816 -227.884001 
L 358.254777 -225.280267 
L 360.900991 -222.676534 
L 363.66135 -220.072801 
L 366.47305 -217.469067 
L 369.273369 -214.865334 
L 372.005855 -212.2616 
L 374.624822 -209.657867 
L 377.097333 -207.054134 
L 379.402334 -204.4504 
L 381.527206 -201.846667 
L 383.462565 -199.242934 
L 385.196604 -196.6392 
L 386.710407 -194.035467 
L 387.975498 -191.431734 
L 388.954433 -188.828 
L 389.604498 -186.224267 
L 389.883884 -183.620534 
L 389.759062 -181.0168 
L 389.21177 -178.413067 
L 388.244098 -175.809334 
L 386.880555 -173.2056 
L 385.166684 -170.601867 
L 383.164559 -167.998133 
L 380.946119 -165.3944 
L 378.585671 -162.790667 
L 376.15293 -160.186933 
L 373.707674 -157.5832 
L 371.296585 -154.979467 
L 368.952296 -152.375733 
L 366.694211 -149.772 
L 364.530387 -147.168267 
L 362.459785 -144.564533 
L 360.474355 -141.9608 
L 358.560735 -139.357067 
L 356.701628 -136.753333 
L 354.877127 -134.1496 
L 353.06626 -131.545867 
L 351.248959 -128.942133 
L 349.408419 -126.3384 
L 347.533579 -123.734666 
L 345.621318 -121.130933 
L 343.677889 -118.5272 
L 341.719209 -115.923466 
L 339.769827 -113.319733 
L 337.860662 -110.716 
L 336.025811 -108.112266 
L 334.29895 -105.508533 
L 332.709873 -102.9048 
L 331.281675 -100.301066 
L 330.028941 -97.697333 
L 328.957083 -95.0936 
L 328.062786 -92.489866 
L 327.335326 -89.886133 
L 326.75846 -87.2824 
L 326.312536 -84.678666 
L 325.976514 -82.074933 
z
" style="stroke: #525252; stroke-width: 0.8"/>
    </defs>
    <g clip-path="url(#p7213baa3f4)">
     <use xlink:href="#mc599ef6716" x="0" y="396" style="fill: #3469dc; stroke: #525252; stroke-width: 0.8"/>
    </g>
   </g>
   <g id="FillBetweenPolyCollection_3">
    <defs>
     <path id="mb2386740cd" d="M 503.180924 -75.383188 
L 502.416635 -75.383188 
L 502.270723 -77.722672 
L 502.083666 -80.062157 
L 501.849124 -82.401641 
L 501.561255 -84.741126 
L 501.215043 -87.08061 
L 500.806495 -89.420095 
L 500.332678 -91.759579 
L 499.79155 -94.099064 
L 499.18158 -96.438548 
L 498.501232 -98.778033 
L 497.748406 -101.117517 
L 496.919983 -103.457002 
L 496.011625 -105.796486 
L 495.01797 -108.135971 
L 493.933273 -110.475455 
L 492.752495 -112.814939 
L 491.472678 -115.154424 
L 490.0944 -117.493908 
L 488.622998 -119.833393 
L 487.069242 -122.172877 
L 485.449196 -124.512362 
L 483.783139 -126.851846 
L 482.093541 -129.191331 
L 480.402341 -131.530815 
L 478.727885 -133.8703 
L 477.082026 -136.209784 
L 475.467908 -138.549269 
L 473.878857 -140.888753 
L 472.29868 -143.228238 
L 470.703389 -145.567722 
L 469.064183 -147.907207 
L 467.351267 -150.246691 
L 465.537953 -152.586176 
L 463.604465 -154.92566 
L 461.540902 -157.265145 
L 459.348981 -159.604629 
L 457.042358 -161.944114 
L 454.645588 -164.283598 
L 452.191943 -166.623083 
L 449.720506 -168.962567 
L 447.273003 -171.302052 
L 444.890879 -173.641536 
L 442.613031 -175.981021 
L 440.47449 -178.320505 
L 438.506164 -180.659989 
L 436.735576 -182.999474 
L 435.188318 -185.338958 
L 433.889833 -187.678443 
L 432.867044 -190.017927 
L 432.149353 -192.357412 
L 431.76866 -194.696896 
L 431.758187 -197.036381 
L 432.150148 -199.375865 
L 432.972501 -201.71535 
L 434.245224 -204.054834 
L 435.97664 -206.394319 
L 438.160363 -208.733803 
L 440.773319 -211.073288 
L 443.775175 -213.412772 
L 447.109281 -215.752257 
L 450.70503 -218.091741 
L 454.481387 -220.431226 
L 458.351197 -222.77071 
L 462.22585 -225.110195 
L 466.019884 -227.449679 
L 469.655178 -229.789164 
L 473.064479 -232.128648 
L 476.194077 -234.468133 
L 479.005554 -236.807617 
L 481.476585 -239.147102 
L 483.600808 -241.486586 
L 485.386834 -243.826071 
L 486.856499 -246.165555 
L 488.042489 -248.50504 
L 488.985524 -250.844524 
L 489.731302 -253.184008 
L 490.327441 -255.523493 
L 490.820622 -257.862977 
L 491.254135 -260.202462 
L 491.665936 -262.541946 
L 492.087286 -264.881431 
L 492.541948 -267.220915 
L 493.045895 -269.5604 
L 493.607446 -271.899884 
L 494.227759 -274.239369 
L 494.901609 -276.578853 
L 495.618432 -278.918338 
L 496.363567 -281.257822 
L 497.119685 -283.597307 
L 497.8683 -285.936791 
L 498.591289 -288.276276 
L 499.272285 -290.61576 
L 499.897815 -292.955245 
L 500.458096 -295.294729 
L 500.947403 -297.634214 
L 501.364033 -299.973698 
L 501.709883 -302.313183 
L 501.989769 -304.652667 
L 502.210578 -306.992152 
L 503.386981 -306.992152 
L 503.386981 -306.992152 
L 503.607791 -304.652667 
L 503.887676 -302.313183 
L 504.233526 -299.973698 
L 504.650156 -297.634214 
L 505.139464 -295.294729 
L 505.699744 -292.955245 
L 506.325274 -290.61576 
L 507.00627 -288.276276 
L 507.72926 -285.936791 
L 508.477875 -283.597307 
L 509.233992 -281.257822 
L 509.979128 -278.918338 
L 510.69595 -276.578853 
L 511.369801 -274.239369 
L 511.990113 -271.899884 
L 512.551665 -269.5604 
L 513.055612 -267.220915 
L 513.510274 -264.881431 
L 513.931624 -262.541946 
L 514.343425 -260.202462 
L 514.776937 -257.862977 
L 515.270118 -255.523493 
L 515.866257 -253.184008 
L 516.612036 -250.844524 
L 517.55507 -248.50504 
L 518.74106 -246.165555 
L 520.210725 -243.826071 
L 521.996751 -241.486586 
L 524.120975 -239.147102 
L 526.592006 -236.807617 
L 529.403483 -234.468133 
L 532.53308 -232.128648 
L 535.942381 -229.789164 
L 539.577675 -227.449679 
L 543.371709 -225.110195 
L 547.246362 -222.77071 
L 551.116173 -220.431226 
L 554.892529 -218.091741 
L 558.488278 -215.752257 
L 561.822384 -213.412772 
L 564.824241 -211.073288 
L 567.437197 -208.733803 
L 569.620919 -206.394319 
L 571.352336 -204.054834 
L 572.625058 -201.71535 
L 573.447412 -199.375865 
L 573.839372 -197.036381 
L 573.828899 -194.696896 
L 573.448206 -192.357412 
L 572.730516 -190.017927 
L 571.707727 -187.678443 
L 570.409242 -185.338958 
L 568.861983 -182.999474 
L 567.091395 -180.659989 
L 565.123069 -178.320505 
L 562.984528 -175.981021 
L 560.706681 -173.641536 
L 558.324557 -171.302052 
L 555.877053 -168.962567 
L 553.405616 -166.623083 
L 550.951972 -164.283598 
L 548.555201 -161.944114 
L 546.248579 -159.604629 
L 544.056657 -157.265145 
L 541.993095 -154.92566 
L 540.059606 -152.586176 
L 538.246292 -150.246691 
L 536.533376 -147.907207 
L 534.894171 -145.567722 
L 533.298879 -143.228238 
L 531.718702 -140.888753 
L 530.129651 -138.549269 
L 528.515533 -136.209784 
L 526.869674 -133.8703 
L 525.195218 -131.530815 
L 523.504019 -129.191331 
L 521.814421 -126.851846 
L 520.148363 -124.512362 
L 518.528318 -122.172877 
L 516.974561 -119.833393 
L 515.50316 -117.493908 
L 514.124882 -115.154424 
L 512.845064 -112.814939 
L 511.664286 -110.475455 
L 510.57959 -108.135971 
L 509.585934 -105.796486 
L 508.677576 -103.457002 
L 507.849153 -101.117517 
L 507.096327 -98.778033 
L 506.415979 -96.438548 
L 505.806009 -94.099064 
L 505.264881 -91.759579 
L 504.791065 -89.420095 
L 504.382516 -87.08061 
L 504.036304 -84.741126 
L 503.748436 -82.401641 
L 503.513893 -80.062157 
L 503.326837 -77.722672 
L 503.180924 -75.383188 
z
" style="stroke: #525252; stroke-width: 0.8"/>
    </defs>
    <g clip-path="url(#p7213baa3f4)">
     <use xlink:href="#mb2386740cd" x="0" y="396" style="fill: #3469dc; stroke: #525252; stroke-width: 0.8"/>
    </g>
   </g>
   <g id="line2d_1">
    <path d="M 105.375196 238.046864 
L 189.816441 238.046864 
" clip-path="url(#p7213baa3f4)" style="fill: none; stroke-dasharray: 1,0.6; stroke-dashoffset: 0; stroke: #525252; stroke-width: 0.8"/>
   </g>
   <g id="line2d_2">
    <path d="M 94.846954 200.189591 
L 200.344682 200.189591 
" clip-path="url(#p7213baa3f4)" style="fill: none; stroke-dasharray: 2,0.8; stroke-dashoffset: 0; stroke: #525252; stroke-width: 0.8"/>
   </g>
   <g id="line2d_3">
    <path d="M 100.391156 174.429759 
L 194.800481 174.429759 
" clip-path="url(#p7213baa3f4)" style="fill: none; stroke-dasharray: 1,0.6; stroke-dashoffset: 0; stroke: #525252; stroke-width: 0.8"/>
   </g>
   <g id="line2d_4">
    <path d="M 273.262444 234.765014 
L 377.132154 234.765014 
" clip-path="url(#p7213baa3f4)" style="fill: none; stroke-dasharray: 1,0.6; stroke-dashoffset: 0; stroke: #525252; stroke-width: 0.8"/>
   </g>
   <g id="line2d_5">
    <path d="M 260.575303 213.726762 
L 389.819295 213.726762 
" clip-path="url(#p7213baa3f4)" style="fill: none; stroke-dasharray: 2,0.8; stroke-dashoffset: 0; stroke: #525252; stroke-width: 0.8"/>
   </g>
   <g id="line2d_6">
    <path d="M 275.090743 187.057204 
L 375.303855 187.057204 
" clip-path="url(#p7213baa3f4)" style="fill: none; stroke-dasharray: 1,0.6; stroke-dashoffset: 0; stroke: #525252; stroke-width: 0.8"/>
   </g>
   <g id="line2d_7">
    <path d="M 450.611128 227.880504 
L 554.986431 227.880504 
" clip-path="url(#p7213baa3f4)" style="fill: none; stroke-dasharray: 1,0.6; stroke-dashoffset: 0; stroke: #525252; stroke-width: 0.8"/>
   </g>
   <g id="line2d_8">
    <path d="M 432.894188 206.044162 
L 572.703371 206.044162 
" clip-path="url(#p7213baa3f4)" style="fill: none; stroke-dasharray: 2,0.8; stroke-dashoffset: 0; stroke: #525252; stroke-width: 0.8"/>
   </g>
   <g id="line2d_9">
    <path d="M 440.065163 185.560752 
L 565.532396 185.560752 
" clip-path="url(#p7213baa3f4)" style="fill: none; stroke-dasharray: 1,0.6; stroke-dashoffset: 0; stroke: #525252; stroke-width: 0.8"/>
   </g>
   <g id="patch_3">
    <path d="M 58.795078 357.797422 
L 58.795078 41.791562 
" style="fill: none; stroke: #e2e8f0; stroke-width: 0.8; stroke-linejoin: miter; stroke-linecap: square"/>
   </g>
   <g id="patch_4">
    <path d="M 58.795078 357.797422 
L 591.59952 357.797422 
" style="fill: none; stroke: #e2e8f0; stroke-width: 0.8; stroke-linejoin: miter; stroke-linecap: square"/>
   </g>
   <g id="PathCollection_1">
    <defs>
     <path id="md8b249d49c" d="M 0 2 
C 0.530406 2 1.03916 1.789267 1.414214 1.414214 
C 1.789267 1.03916 2 0.530406 2 0 
C 2 -0.530406 1.789267 -1.03916 1.414214 -1.414214 
C 1.03916 -1.789267 0.530406 -2 0 -2 
C -0.530406 -2 -1.03916 -1.789267 -1.414214 -1.414214 
C -1.789267 -1.03916 -2 -0.530406 -2 0 
C -2 0.530406 -1.789267 1.03916 -1.414214 1.414214 
C -1.03916 1.789267 -0.530406 2 0 2 
z
" style="stroke: #ffffff; stroke-opacity: 0.4; stroke-width: 0.5"/>
    </defs>
    <g clip-path="url(#p7213baa3f4)">
     <use xlink:href="#md8b249d49c" x="102.978434" y="213.276107" style="fill: #dc2626; fill-opacity: 0.4; stroke: #ffffff; stroke-opacity: 0.4; stroke-width: 0.5"/>
     <use xlink:href="#md8b249d49c" x="200.106643" y="255.790664" style="fill: #dc2626; fill-opacity: 0.4; stroke: #ffffff; stroke-opacity: 0.4; stroke-width: 0.5"/>
     <use xlink:href="#md8b249d49c" x="134.560737" y="256.313709" style="fill: #dc2626; fill-opacity: 0.4; stroke: #ffffff; stroke-opacity: 0.4; stroke-width: 0.5"/>
     <use xlink:href="#md8b249d49c" x="111.856579" y="236.832621" style="fill: #dc2626; fill-opacity: 0.4; stroke: #ffffff; stroke-opacity: 0.4; stroke-width: 0.5"/>
     <use xlink:href="#md8b249d49c" x="198.176228" y="242.905334" style="fill: #dc2626; fill-opacity: 0.4; stroke: #ffffff; stroke-opacity: 0.4; stroke-width: 0.5"/>
     <use xlink:href="#md8b249d49c" x="101.605228" y="258.656438" style="fill: #dc2626; fill-opacity: 0.4; stroke: #ffffff; stroke-opacity: 0.4; stroke-width: 0.5"/>
     <use xlink:href="#md8b249d49c" x="117.765458" y="255.566141" style="fill: #dc2626; fill-opacity: 0.4; stroke: #ffffff; stroke-opacity: 0.4; stroke-width: 0.5"/>
     <use xlink:href="#md8b249d49c" x="189.796781" y="238.451612" style="fill: #dc2626; fill-opacity: 0.4; stroke: #ffffff; stroke-opacity: 0.4; stroke-width: 0.5"/>
     <use xlink:href="#md8b249d49c" x="170.737762" y="233.108178" style="fill: #dc2626; fill-opacity: 0.4; stroke: #ffffff; stroke-opacity: 0.4; stroke-width: 0.5"/>
     <use xlink:href="#md8b249d49c" x="165.151268" y="216.026477" style="fill: #dc2626; fill-opacity: 0.4; stroke: #ffffff; stroke-opacity: 0.4; stroke-width: 0.5"/>
     <use xlink:href="#md8b249d49c" x="131.474118" y="162.357914" style="fill: #dc2626; fill-opacity: 0.4; stroke: #ffffff; stroke-opacity: 0.4; stroke-width: 0.5"/>
     <use xlink:href="#md8b249d49c" x="125.829823" y="294.001981" style="fill: #dc2626; fill-opacity: 0.4; stroke: #ffffff; stroke-opacity: 0.4; stroke-width: 0.5"/>
     <use xlink:href="#md8b249d49c" x="148.075351" y="221.015297" style="fill: #dc2626; fill-opacity: 0.4; stroke: #ffffff; stroke-opacity: 0.4; stroke-width: 0.5"/>
     <use xlink:href="#md8b249d49c" x="175.914394" y="241.528408" style="fill: #dc2626; fill-opacity: 0.4; stroke: #ffffff; stroke-opacity: 0.4; stroke-width: 0.5"/>
     <use xlink:href="#md8b249d49c" x="197.330902" y="169.653123" style="fill: #dc2626; fill-opacity: 0.4; stroke: #ffffff; stroke-opacity: 0.4; stroke-width: 0.5"/>
     <use xlink:href="#md8b249d49c" x="96.459227" y="252.212233" style="fill: #dc2626; fill-opacity: 0.4; stroke: #ffffff; stroke-opacity: 0.4; stroke-width: 0.5"/>
     <use xlink:href="#md8b249d49c" x="125.51661" y="161.414772" style="fill: #dc2626; fill-opacity: 0.4; stroke: #ffffff; stroke-opacity: 0.4; stroke-width: 0.5"/>
     <use xlink:href="#md8b249d49c" x="192.162377" y="187.250146" style="fill: #dc2626; fill-opacity: 0.4; stroke: #ffffff; stroke-opacity: 0.4; stroke-width: 0.5"/>
     <use xlink:href="#md8b249d49c" x="188.044592" y="174.314738" style="fill: #dc2626; fill-opacity: 0.4; stroke: #ffffff; stroke-opacity: 0.4; stroke-width: 0.5"/>
     <use xlink:href="#md8b249d49c" x="147.785063" y="220.12242" style="fill: #dc2626; fill-opacity: 0.4; stroke: #ffffff; stroke-opacity: 0.4; stroke-width: 0.5"/>
     <use xlink:href="#md8b249d49c" x="116.493005" y="181.581333" style="fill: #dc2626; fill-opacity: 0.4; stroke: #ffffff; stroke-opacity: 0.4; stroke-width: 0.5"/>
     <use xlink:href="#md8b249d49c" x="136.400089" y="151.466039" style="fill: #dc2626; fill-opacity: 0.4; stroke: #ffffff; stroke-opacity: 0.4; stroke-width: 0.5"/>
     <use xlink:href="#md8b249d49c" x="120.286559" y="174.774825" style="fill: #dc2626; fill-opacity: 0.4; stroke: #ffffff; stroke-opacity: 0.4; stroke-width: 0.5"/>
     <use xlink:href="#md8b249d49c" x="126.282617" y="145.36137" style="fill: #dc2626; fill-opacity: 0.4; stroke: #ffffff; stroke-opacity: 0.4; stroke-width: 0.5"/>
     <use xlink:href="#md8b249d49c" x="157.814403" y="147.335864" style="fill: #dc2626; fill-opacity: 0.4; stroke: #ffffff; stroke-opacity: 0.4; stroke-width: 0.5"/>
     <use xlink:href="#md8b249d49c" x="121.940641" y="215.581749" style="fill: #dc2626; fill-opacity: 0.4; stroke: #ffffff; stroke-opacity: 0.4; stroke-width: 0.5"/>
     <use xlink:href="#md8b249d49c" x="165.072788" y="196.651897" style="fill: #dc2626; fill-opacity: 0.4; stroke: #ffffff; stroke-opacity: 0.4; stroke-width: 0.5"/>
     <use xlink:href="#md8b249d49c" x="189.966807" y="190.509817" style="fill: #dc2626; fill-opacity: 0.4; stroke: #ffffff; stroke-opacity: 0.4; stroke-width: 0.5"/>
     <use xlink:href="#md8b249d49c" x="137.831712" y="148.769669" style="fill: #dc2626; fill-opacity: 0.4; stroke: #ffffff; stroke-opacity: 0.4; stroke-width: 0.5"/>
     <use xlink:href="#md8b249d49c" x="190.634662" y="209.499955" style="fill: #dc2626; fill-opacity: 0.4; stroke: #ffffff; stroke-opacity: 0.4; stroke-width: 0.5"/>
     <use xlink:href="#md8b249d49c" x="116.3671" y="194.873484" style="fill: #dc2626; fill-opacity: 0.4; stroke: #ffffff; stroke-opacity: 0.4; stroke-width: 0.5"/>
     <use xlink:href="#md8b249d49c" x="100.528379" y="159.523361" style="fill: #dc2626; fill-opacity: 0.4; stroke: #ffffff; stroke-opacity: 0.4; stroke-width: 0.5"/>
     <use xlink:href="#md8b249d49c" x="124.93013" y="171.869109" style="fill: #dc2626; fill-opacity: 0.4; stroke: #ffffff; stroke-opacity: 0.4; stroke-width: 0.5"/>
     <use xlink:href="#md8b249d49c" x="140.344287" y="150.631824" style="fill: #dc2626; fill-opacity: 0.4; stroke: #ffffff; stroke-opacity: 0.4; stroke-width: 0.5"/>
     <use xlink:href="#md8b249d49c" x="170.242841" y="183.762716" style="fill: #dc2626; fill-opacity: 0.4; stroke: #ffffff; stroke-opacity: 0.4; stroke-width: 0.5"/>
     <use xlink:href="#md8b249d49c" x="187.815392" y="263.092797" style="fill: #dc2626; fill-opacity: 0.4; stroke: #ffffff; stroke-opacity: 0.4; stroke-width: 0.5"/>
     <use xlink:href="#md8b249d49c" x="105.755435" y="156.706294" style="fill: #dc2626; fill-opacity: 0.4; stroke: #ffffff; stroke-opacity: 0.4; stroke-width: 0.5"/>
     <use xlink:href="#md8b249d49c" x="169.513481" y="230.837799" style="fill: #dc2626; fill-opacity: 0.4; stroke: #ffffff; stroke-opacity: 0.4; stroke-width: 0.5"/>
     <use xlink:href="#md8b249d49c" x="197.756988" y="225.867521" style="fill: #dc2626; fill-opacity: 0.4; stroke: #ffffff; stroke-opacity: 0.4; stroke-width: 0.5"/>
     <use xlink:href="#md8b249d49c" x="147.541839" y="239.714223" style="fill: #dc2626; fill-opacity: 0.4; stroke: #ffffff; stroke-opacity: 0.4; stroke-width: 0.5"/>
     <use xlink:href="#md8b249d49c" x="199.079389" y="119.90385" style="fill: #dc2626; fill-opacity: 0.4; stroke: #ffffff; stroke-opacity: 0.4; stroke-width: 0.5"/>
     <use xlink:href="#md8b249d49c" x="165.878133" y="256.077429" style="fill: #dc2626; fill-opacity: 0.4; stroke: #ffffff; stroke-opacity: 0.4; stroke-width: 0.5"/>
     <use xlink:href="#md8b249d49c" x="103.616825" y="131.554994" style="fill: #dc2626; fill-opacity: 0.4; stroke: #ffffff; stroke-opacity: 0.4; stroke-width: 0.5"/>
     <use xlink:href="#md8b249d49c" x="174.23522" y="251.459916" style="fill: #dc2626; fill-opacity: 0.4; stroke: #ffffff; stroke-opacity: 0.4; stroke-width: 0.5"/>
     <use xlink:href="#md8b249d49c" x="110.146689" y="191.153453" style="fill: #dc2626; fill-opacity: 0.4; stroke: #ffffff; stroke-opacity: 0.4; stroke-width: 0.5"/>
     <use xlink:href="#md8b249d49c" x="160.402866" y="214.542077" style="fill: #dc2626; fill-opacity: 0.4; stroke: #ffffff; stroke-opacity: 0.4; stroke-width: 0.5"/>
     <use xlink:href="#md8b249d49c" x="164.727469" y="185.972897" style="fill: #dc2626; fill-opacity: 0.4; stroke: #ffffff; stroke-opacity: 0.4; stroke-width: 0.5"/>
     <use xlink:href="#md8b249d49c" x="141.515997" y="164.403926" style="fill: #dc2626; fill-opacity: 0.4; stroke: #ffffff; stroke-opacity: 0.4; stroke-width: 0.5"/>
     <use xlink:href="#md8b249d49c" x="161.339172" y="190.746891" style="fill: #dc2626; fill-opacity: 0.4; stroke: #ffffff; stroke-opacity: 0.4; stroke-width: 0.5"/>
     <use xlink:href="#md8b249d49c" x="166.507188" y="202.647829" style="fill: #dc2626; fill-opacity: 0.4; stroke: #ffffff; stroke-opacity: 0.4; stroke-width: 0.5"/>
     <use xlink:href="#md8b249d49c" x="115.402434" y="204.763006" style="fill: #dc2626; fill-opacity: 0.4; stroke: #ffffff; stroke-opacity: 0.4; stroke-width: 0.5"/>
     <use xlink:href="#md8b249d49c" x="198.125347" y="189.388206" style="fill: #dc2626; fill-opacity: 0.4; stroke: #ffffff; stroke-opacity: 0.4; stroke-width: 0.5"/>
     <use xlink:href="#md8b249d49c" x="189.333385" y="194.29433" style="fill: #dc2626; fill-opacity: 0.4; stroke: #ffffff; stroke-opacity: 0.4; stroke-width: 0.5"/>
     <use xlink:href="#md8b249d49c" x="196.161778" y="249.023303" style="fill: #dc2626; fill-opacity: 0.4; stroke: #ffffff; stroke-opacity: 0.4; stroke-width: 0.5"/>
     <use xlink:href="#md8b249d49c" x="142.082743" y="194.25575" style="fill: #dc2626; fill-opacity: 0.4; stroke: #ffffff; stroke-opacity: 0.4; stroke-width: 0.5"/>
     <use xlink:href="#md8b249d49c" x="95.54653" y="202.675272" style="fill: #dc2626; fill-opacity: 0.4; stroke: #ffffff; stroke-opacity: 0.4; stroke-width: 0.5"/>
     <use xlink:href="#md8b249d49c" x="118.04842" y="307.062202" style="fill: #dc2626; fill-opacity: 0.4; stroke: #ffffff; stroke-opacity: 0.4; stroke-width: 0.5"/>
     <use xlink:href="#md8b249d49c" x="198.427671" y="197.731353" style="fill: #dc2626; fill-opacity: 0.4; stroke: #ffffff; stroke-opacity: 0.4; stroke-width: 0.5"/>
    </g>
   </g>
   <g id="PathCollection_2">
    <g clip-path="url(#p7213baa3f4)">
     <use xlink:href="#md8b249d49c" x="316.49571" y="254.893477" style="fill: #dc2626; fill-opacity: 0.4; stroke: #ffffff; stroke-opacity: 0.4; stroke-width: 0.5"/>
     <use xlink:href="#md8b249d49c" x="309.804155" y="202.507387" style="fill: #dc2626; fill-opacity: 0.4; stroke: #ffffff; stroke-opacity: 0.4; stroke-width: 0.5"/>
     <use xlink:href="#md8b249d49c" x="341.245613" y="232.572992" style="fill: #dc2626; fill-opacity: 0.4; stroke: #ffffff; stroke-opacity: 0.4; stroke-width: 0.5"/>
     <use xlink:href="#md8b249d49c" x="318.998264" y="281.097493" style="fill: #dc2626; fill-opacity: 0.4; stroke: #ffffff; stroke-opacity: 0.4; stroke-width: 0.5"/>
     <use xlink:href="#md8b249d49c" x="348.918399" y="212.171327" style="fill: #dc2626; fill-opacity: 0.4; stroke: #ffffff; stroke-opacity: 0.4; stroke-width: 0.5"/>
     <use xlink:href="#md8b249d49c" x="283.617561" y="218.44263" style="fill: #dc2626; fill-opacity: 0.4; stroke: #ffffff; stroke-opacity: 0.4; stroke-width: 0.5"/>
     <use xlink:href="#md8b249d49c" x="370.194217" y="244.966899" style="fill: #dc2626; fill-opacity: 0.4; stroke: #ffffff; stroke-opacity: 0.4; stroke-width: 0.5"/>
     <use xlink:href="#md8b249d49c" x="323.299557" y="272.129571" style="fill: #dc2626; fill-opacity: 0.4; stroke: #ffffff; stroke-opacity: 0.4; stroke-width: 0.5"/>
     <use xlink:href="#md8b249d49c" x="336.002147" y="218.603946" style="fill: #dc2626; fill-opacity: 0.4; stroke: #ffffff; stroke-opacity: 0.4; stroke-width: 0.5"/>
     <use xlink:href="#md8b249d49c" x="300.889726" y="220.306598" style="fill: #dc2626; fill-opacity: 0.4; stroke: #ffffff; stroke-opacity: 0.4; stroke-width: 0.5"/>
     <use xlink:href="#md8b249d49c" x="304.968107" y="219.008227" style="fill: #dc2626; fill-opacity: 0.4; stroke: #ffffff; stroke-opacity: 0.4; stroke-width: 0.5"/>
     <use xlink:href="#md8b249d49c" x="281.49911" y="214.644053" style="fill: #dc2626; fill-opacity: 0.4; stroke: #ffffff; stroke-opacity: 0.4; stroke-width: 0.5"/>
     <use xlink:href="#md8b249d49c" x="277.624697" y="205.771234" style="fill: #dc2626; fill-opacity: 0.4; stroke: #ffffff; stroke-opacity: 0.4; stroke-width: 0.5"/>
     <use xlink:href="#md8b249d49c" x="303.997798" y="272.918664" style="fill: #dc2626; fill-opacity: 0.4; stroke: #ffffff; stroke-opacity: 0.4; stroke-width: 0.5"/>
     <use xlink:href="#md8b249d49c" x="373.749204" y="258.403964" style="fill: #dc2626; fill-opacity: 0.4; stroke: #ffffff; stroke-opacity: 0.4; stroke-width: 0.5"/>
     <use xlink:href="#md8b249d49c" x="326.731851" y="133.115617" style="fill: #dc2626; fill-opacity: 0.4; stroke: #ffffff; stroke-opacity: 0.4; stroke-width: 0.5"/>
     <use xlink:href="#md8b249d49c" x="279.436623" y="212.80947" style="fill: #dc2626; fill-opacity: 0.4; stroke: #ffffff; stroke-opacity: 0.4; stroke-width: 0.5"/>
     <use xlink:href="#md8b249d49c" x="353.010318" y="217.486864" style="fill: #dc2626; fill-opacity: 0.4; stroke: #ffffff; stroke-opacity: 0.4; stroke-width: 0.5"/>
     <use xlink:href="#md8b249d49c" x="272.57067" y="239.266181" style="fill: #dc2626; fill-opacity: 0.4; stroke: #ffffff; stroke-opacity: 0.4; stroke-width: 0.5"/>
     <use xlink:href="#md8b249d49c" x="308.565285" y="245.539126" style="fill: #dc2626; fill-opacity: 0.4; stroke: #ffffff; stroke-opacity: 0.4; stroke-width: 0.5"/>
     <use xlink:href="#md8b249d49c" x="369.794523" y="230.511764" style="fill: #dc2626; fill-opacity: 0.4; stroke: #ffffff; stroke-opacity: 0.4; stroke-width: 0.5"/>
     <use xlink:href="#md8b249d49c" x="357.834223" y="192.03445" style="fill: #dc2626; fill-opacity: 0.4; stroke: #ffffff; stroke-opacity: 0.4; stroke-width: 0.5"/>
     <use xlink:href="#md8b249d49c" x="331.953002" y="221.868975" style="fill: #dc2626; fill-opacity: 0.4; stroke: #ffffff; stroke-opacity: 0.4; stroke-width: 0.5"/>
     <use xlink:href="#md8b249d49c" x="325.266853" y="194.68854" style="fill: #dc2626; fill-opacity: 0.4; stroke: #ffffff; stroke-opacity: 0.4; stroke-width: 0.5"/>
     <use xlink:href="#md8b249d49c" x="348.828985" y="241.942514" style="fill: #dc2626; fill-opacity: 0.4; stroke: #ffffff; stroke-opacity: 0.4; stroke-width: 0.5"/>
     <use xlink:href="#md8b249d49c" x="372.2286" y="263.804075" style="fill: #dc2626; fill-opacity: 0.4; stroke: #ffffff; stroke-opacity: 0.4; stroke-width: 0.5"/>
     <use xlink:href="#md8b249d49c" x="285.139735" y="249.146198" style="fill: #dc2626; fill-opacity: 0.4; stroke: #ffffff; stroke-opacity: 0.4; stroke-width: 0.5"/>
     <use xlink:href="#md8b249d49c" x="297.5871" y="163.888049" style="fill: #dc2626; fill-opacity: 0.4; stroke: #ffffff; stroke-opacity: 0.4; stroke-width: 0.5"/>
     <use xlink:href="#md8b249d49c" x="294.003443" y="190.329005" style="fill: #dc2626; fill-opacity: 0.4; stroke: #ffffff; stroke-opacity: 0.4; stroke-width: 0.5"/>
     <use xlink:href="#md8b249d49c" x="365.344775" y="198.256175" style="fill: #dc2626; fill-opacity: 0.4; stroke: #ffffff; stroke-opacity: 0.4; stroke-width: 0.5"/>
     <use xlink:href="#md8b249d49c" x="332.340945" y="181.916022" style="fill: #dc2626; fill-opacity: 0.4; stroke: #ffffff; stroke-opacity: 0.4; stroke-width: 0.5"/>
     <use xlink:href="#md8b249d49c" x="312.428972" y="189.31934" style="fill: #dc2626; fill-opacity: 0.4; stroke: #ffffff; stroke-opacity: 0.4; stroke-width: 0.5"/>
     <use xlink:href="#md8b249d49c" x="363.785842" y="180.337981" style="fill: #dc2626; fill-opacity: 0.4; stroke: #ffffff; stroke-opacity: 0.4; stroke-width: 0.5"/>
     <use xlink:href="#md8b249d49c" x="362.257498" y="156.7725" style="fill: #dc2626; fill-opacity: 0.4; stroke: #ffffff; stroke-opacity: 0.4; stroke-width: 0.5"/>
     <use xlink:href="#md8b249d49c" x="346.455167" y="181.29845" style="fill: #dc2626; fill-opacity: 0.4; stroke: #ffffff; stroke-opacity: 0.4; stroke-width: 0.5"/>
     <use xlink:href="#md8b249d49c" x="307.919633" y="218.701738" style="fill: #dc2626; fill-opacity: 0.4; stroke: #ffffff; stroke-opacity: 0.4; stroke-width: 0.5"/>
     <use xlink:href="#md8b249d49c" x="279.110952" y="142.301202" style="fill: #dc2626; fill-opacity: 0.4; stroke: #ffffff; stroke-opacity: 0.4; stroke-width: 0.5"/>
     <use xlink:href="#md8b249d49c" x="373.008347" y="140.368527" style="fill: #dc2626; fill-opacity: 0.4; stroke: #ffffff; stroke-opacity: 0.4; stroke-width: 0.5"/>
     <use xlink:href="#md8b249d49c" x="303.724067" y="196.348521" style="fill: #dc2626; fill-opacity: 0.4; stroke: #ffffff; stroke-opacity: 0.4; stroke-width: 0.5"/>
     <use xlink:href="#md8b249d49c" x="305.84555" y="209.940351" style="fill: #dc2626; fill-opacity: 0.4; stroke: #ffffff; stroke-opacity: 0.4; stroke-width: 0.5"/>
     <use xlink:href="#md8b249d49c" x="274.875687" y="186.303159" style="fill: #dc2626; fill-opacity: 0.4; stroke: #ffffff; stroke-opacity: 0.4; stroke-width: 0.5"/>
     <use xlink:href="#md8b249d49c" x="275.541096" y="177.197567" style="fill: #dc2626; fill-opacity: 0.4; stroke: #ffffff; stroke-opacity: 0.4; stroke-width: 0.5"/>
     <use xlink:href="#md8b249d49c" x="339.711101" y="183.760188" style="fill: #dc2626; fill-opacity: 0.4; stroke: #ffffff; stroke-opacity: 0.4; stroke-width: 0.5"/>
     <use xlink:href="#md8b249d49c" x="314.314982" y="169.057337" style="fill: #dc2626; fill-opacity: 0.4; stroke: #ffffff; stroke-opacity: 0.4; stroke-width: 0.5"/>
     <use xlink:href="#md8b249d49c" x="344.375966" y="240.641025" style="fill: #dc2626; fill-opacity: 0.4; stroke: #ffffff; stroke-opacity: 0.4; stroke-width: 0.5"/>
     <use xlink:href="#md8b249d49c" x="363.335951" y="218.551457" style="fill: #dc2626; fill-opacity: 0.4; stroke: #ffffff; stroke-opacity: 0.4; stroke-width: 0.5"/>
     <use xlink:href="#md8b249d49c" x="290.013596" y="195.044872" style="fill: #dc2626; fill-opacity: 0.4; stroke: #ffffff; stroke-opacity: 0.4; stroke-width: 0.5"/>
     <use xlink:href="#md8b249d49c" x="349.162699" y="204.658563" style="fill: #dc2626; fill-opacity: 0.4; stroke: #ffffff; stroke-opacity: 0.4; stroke-width: 0.5"/>
     <use xlink:href="#md8b249d49c" x="345.131714" y="181.475438" style="fill: #dc2626; fill-opacity: 0.4; stroke: #ffffff; stroke-opacity: 0.4; stroke-width: 0.5"/>
     <use xlink:href="#md8b249d49c" x="353.18835" y="180.102943" style="fill: #dc2626; fill-opacity: 0.4; stroke: #ffffff; stroke-opacity: 0.4; stroke-width: 0.5"/>
     <use xlink:href="#md8b249d49c" x="366.092782" y="192.187729" style="fill: #dc2626; fill-opacity: 0.4; stroke: #ffffff; stroke-opacity: 0.4; stroke-width: 0.5"/>
     <use xlink:href="#md8b249d49c" x="313.039627" y="247.109583" style="fill: #dc2626; fill-opacity: 0.4; stroke: #ffffff; stroke-opacity: 0.4; stroke-width: 0.5"/>
     <use xlink:href="#md8b249d49c" x="339.505861" y="274.821772" style="fill: #dc2626; fill-opacity: 0.4; stroke: #ffffff; stroke-opacity: 0.4; stroke-width: 0.5"/>
     <use xlink:href="#md8b249d49c" x="340.213112" y="263.236407" style="fill: #dc2626; fill-opacity: 0.4; stroke: #ffffff; stroke-opacity: 0.4; stroke-width: 0.5"/>
     <use xlink:href="#md8b249d49c" x="283.158686" y="248.479468" style="fill: #dc2626; fill-opacity: 0.4; stroke: #ffffff; stroke-opacity: 0.4; stroke-width: 0.5"/>
     <use xlink:href="#md8b249d49c" x="279.879019" y="88.98304" style="fill: #dc2626; fill-opacity: 0.4; stroke: #ffffff; stroke-opacity: 0.4; stroke-width: 0.5"/>
     <use xlink:href="#md8b249d49c" x="354.654252" y="219.44317" style="fill: #dc2626; fill-opacity: 0.4; stroke: #ffffff; stroke-opacity: 0.4; stroke-width: 0.5"/>
     <use xlink:href="#md8b249d49c" x="331.43739" y="219.758313" style="fill: #dc2626; fill-opacity: 0.4; stroke: #ffffff; stroke-opacity: 0.4; stroke-width: 0.5"/>
     <use xlink:href="#md8b249d49c" x="296.203843" y="210.099971" style="fill: #dc2626; fill-opacity: 0.4; stroke: #ffffff; stroke-opacity: 0.4; stroke-width: 0.5"/>
     <use xlink:href="#md8b249d49c" x="352.277499" y="226.899295" style="fill: #dc2626; fill-opacity: 0.4; stroke: #ffffff; stroke-opacity: 0.4; stroke-width: 0.5"/>
     <use xlink:href="#md8b249d49c" x="317.459943" y="233.524532" style="fill: #dc2626; fill-opacity: 0.4; stroke: #ffffff; stroke-opacity: 0.4; stroke-width: 0.5"/>
     <use xlink:href="#md8b249d49c" x="367.74517" y="192.152287" style="fill: #dc2626; fill-opacity: 0.4; stroke: #ffffff; stroke-opacity: 0.4; stroke-width: 0.5"/>
     <use xlink:href="#md8b249d49c" x="280.63776" y="208.64379" style="fill: #dc2626; fill-opacity: 0.4; stroke: #ffffff; stroke-opacity: 0.4; stroke-width: 0.5"/>
     <use xlink:href="#md8b249d49c" x="276.51848" y="142.059293" style="fill: #dc2626; fill-opacity: 0.4; stroke: #ffffff; stroke-opacity: 0.4; stroke-width: 0.5"/>
     <use xlink:href="#md8b249d49c" x="339.259311" y="235.178508" style="fill: #dc2626; fill-opacity: 0.4; stroke: #ffffff; stroke-opacity: 0.4; stroke-width: 0.5"/>
     <use xlink:href="#md8b249d49c" x="353.098551" y="157.292597" style="fill: #dc2626; fill-opacity: 0.4; stroke: #ffffff; stroke-opacity: 0.4; stroke-width: 0.5"/>
     <use xlink:href="#md8b249d49c" x="347.560048" y="274.297973" style="fill: #dc2626; fill-opacity: 0.4; stroke: #ffffff; stroke-opacity: 0.4; stroke-width: 0.5"/>
     <use xlink:href="#md8b249d49c" x="359.633185" y="216.411042" style="fill: #dc2626; fill-opacity: 0.4; stroke: #ffffff; stroke-opacity: 0.4; stroke-width: 0.5"/>
     <use xlink:href="#md8b249d49c" x="310.270606" y="146.119106" style="fill: #dc2626; fill-opacity: 0.4; stroke: #ffffff; stroke-opacity: 0.4; stroke-width: 0.5"/>
     <use xlink:href="#md8b249d49c" x="363.022766" y="219.589266" style="fill: #dc2626; fill-opacity: 0.4; stroke: #ffffff; stroke-opacity: 0.4; stroke-width: 0.5"/>
    </g>
   </g>
   <g id="PathCollection_3">
    <g clip-path="url(#p7213baa3f4)">
     <use xlink:href="#md8b249d49c" x="462.597718" y="238.080245" style="fill: #dc2626; fill-opacity: 0.4; stroke: #ffffff; stroke-opacity: 0.4; stroke-width: 0.5"/>
     <use xlink:href="#md8b249d49c" x="452.215735" y="184.597448" style="fill: #dc2626; fill-opacity: 0.4; stroke: #ffffff; stroke-opacity: 0.4; stroke-width: 0.5"/>
     <use xlink:href="#md8b249d49c" x="509.962601" y="237.38202" style="fill: #dc2626; fill-opacity: 0.4; stroke: #ffffff; stroke-opacity: 0.4; stroke-width: 0.5"/>
     <use xlink:href="#md8b249d49c" x="511.443019" y="199.229896" style="fill: #dc2626; fill-opacity: 0.4; stroke: #ffffff; stroke-opacity: 0.4; stroke-width: 0.5"/>
     <use xlink:href="#md8b249d49c" x="526.490425" y="223.7229" style="fill: #dc2626; fill-opacity: 0.4; stroke: #ffffff; stroke-opacity: 0.4; stroke-width: 0.5"/>
     <use xlink:href="#md8b249d49c" x="510.269695" y="225.32597" style="fill: #dc2626; fill-opacity: 0.4; stroke: #ffffff; stroke-opacity: 0.4; stroke-width: 0.5"/>
     <use xlink:href="#md8b249d49c" x="491.887596" y="174.950768" style="fill: #dc2626; fill-opacity: 0.4; stroke: #ffffff; stroke-opacity: 0.4; stroke-width: 0.5"/>
     <use xlink:href="#md8b249d49c" x="507.020609" y="233.654453" style="fill: #dc2626; fill-opacity: 0.4; stroke: #ffffff; stroke-opacity: 0.4; stroke-width: 0.5"/>
     <use xlink:href="#md8b249d49c" x="480.861845" y="182.685675" style="fill: #dc2626; fill-opacity: 0.4; stroke: #ffffff; stroke-opacity: 0.4; stroke-width: 0.5"/>
     <use xlink:href="#md8b249d49c" x="457.86954" y="199.395596" style="fill: #dc2626; fill-opacity: 0.4; stroke: #ffffff; stroke-opacity: 0.4; stroke-width: 0.5"/>
     <use xlink:href="#md8b249d49c" x="460.880712" y="179.366009" style="fill: #dc2626; fill-opacity: 0.4; stroke: #ffffff; stroke-opacity: 0.4; stroke-width: 0.5"/>
     <use xlink:href="#md8b249d49c" x="520.126672" y="263.925851" style="fill: #dc2626; fill-opacity: 0.4; stroke: #ffffff; stroke-opacity: 0.4; stroke-width: 0.5"/>
     <use xlink:href="#md8b249d49c" x="541.702221" y="246.420884" style="fill: #dc2626; fill-opacity: 0.4; stroke: #ffffff; stroke-opacity: 0.4; stroke-width: 0.5"/>
     <use xlink:href="#md8b249d49c" x="529.149337" y="269.917688" style="fill: #dc2626; fill-opacity: 0.4; stroke: #ffffff; stroke-opacity: 0.4; stroke-width: 0.5"/>
     <use xlink:href="#md8b249d49c" x="531.834069" y="199.299454" style="fill: #dc2626; fill-opacity: 0.4; stroke: #ffffff; stroke-opacity: 0.4; stroke-width: 0.5"/>
     <use xlink:href="#md8b249d49c" x="461.378978" y="257.57366" style="fill: #dc2626; fill-opacity: 0.4; stroke: #ffffff; stroke-opacity: 0.4; stroke-width: 0.5"/>
     <use xlink:href="#md8b249d49c" x="472.113137" y="251.942949" style="fill: #dc2626; fill-opacity: 0.4; stroke: #ffffff; stroke-opacity: 0.4; stroke-width: 0.5"/>
     <use xlink:href="#md8b249d49c" x="479.701912" y="231.08071" style="fill: #dc2626; fill-opacity: 0.4; stroke: #ffffff; stroke-opacity: 0.4; stroke-width: 0.5"/>
     <use xlink:href="#md8b249d49c" x="478.452984" y="259.044035" style="fill: #dc2626; fill-opacity: 0.4; stroke: #ffffff; stroke-opacity: 0.4; stroke-width: 0.5"/>
     <use xlink:href="#md8b249d49c" x="456.079062" y="279.419172" style="fill: #dc2626; fill-opacity: 0.4; stroke: #ffffff; stroke-opacity: 0.4; stroke-width: 0.5"/>
     <use xlink:href="#md8b249d49c" x="513.342445" y="227.737546" style="fill: #dc2626; fill-opacity: 0.4; stroke: #ffffff; stroke-opacity: 0.4; stroke-width: 0.5"/>
     <use xlink:href="#md8b249d49c" x="542.706006" y="256.794997" style="fill: #dc2626; fill-opacity: 0.4; stroke: #ffffff; stroke-opacity: 0.4; stroke-width: 0.5"/>
     <use xlink:href="#md8b249d49c" x="525.170608" y="158.157485" style="fill: #dc2626; fill-opacity: 0.4; stroke: #ffffff; stroke-opacity: 0.4; stroke-width: 0.5"/>
     <use xlink:href="#md8b249d49c" x="501.77637" y="210.158233" style="fill: #dc2626; fill-opacity: 0.4; stroke: #ffffff; stroke-opacity: 0.4; stroke-width: 0.5"/>
     <use xlink:href="#md8b249d49c" x="516.128634" y="175.938755" style="fill: #dc2626; fill-opacity: 0.4; stroke: #ffffff; stroke-opacity: 0.4; stroke-width: 0.5"/>
     <use xlink:href="#md8b249d49c" x="523.71358" y="203.56506" style="fill: #dc2626; fill-opacity: 0.4; stroke: #ffffff; stroke-opacity: 0.4; stroke-width: 0.5"/>
     <use xlink:href="#md8b249d49c" x="495.683355" y="218.731942" style="fill: #dc2626; fill-opacity: 0.4; stroke: #ffffff; stroke-opacity: 0.4; stroke-width: 0.5"/>
     <use xlink:href="#md8b249d49c" x="534.329203" y="144.209933" style="fill: #dc2626; fill-opacity: 0.4; stroke: #ffffff; stroke-opacity: 0.4; stroke-width: 0.5"/>
     <use xlink:href="#md8b249d49c" x="454.601272" y="178.572545" style="fill: #dc2626; fill-opacity: 0.4; stroke: #ffffff; stroke-opacity: 0.4; stroke-width: 0.5"/>
     <use xlink:href="#md8b249d49c" x="472.796387" y="197.085582" style="fill: #dc2626; fill-opacity: 0.4; stroke: #ffffff; stroke-opacity: 0.4; stroke-width: 0.5"/>
     <use xlink:href="#md8b249d49c" x="533.078765" y="222.519648" style="fill: #dc2626; fill-opacity: 0.4; stroke: #ffffff; stroke-opacity: 0.4; stroke-width: 0.5"/>
     <use xlink:href="#md8b249d49c" x="532.40593" y="190.936971" style="fill: #dc2626; fill-opacity: 0.4; stroke: #ffffff; stroke-opacity: 0.4; stroke-width: 0.5"/>
     <use xlink:href="#md8b249d49c" x="490.107709" y="169.073598" style="fill: #dc2626; fill-opacity: 0.4; stroke: #ffffff; stroke-opacity: 0.4; stroke-width: 0.5"/>
     <use xlink:href="#md8b249d49c" x="553.499879" y="187.461537" style="fill: #dc2626; fill-opacity: 0.4; stroke: #ffffff; stroke-opacity: 0.4; stroke-width: 0.5"/>
     <use xlink:href="#md8b249d49c" x="482.371254" y="208.57206" style="fill: #dc2626; fill-opacity: 0.4; stroke: #ffffff; stroke-opacity: 0.4; stroke-width: 0.5"/>
     <use xlink:href="#md8b249d49c" x="552.819226" y="161.831143" style="fill: #dc2626; fill-opacity: 0.4; stroke: #ffffff; stroke-opacity: 0.4; stroke-width: 0.5"/>
     <use xlink:href="#md8b249d49c" x="527.196281" y="221.409895" style="fill: #dc2626; fill-opacity: 0.4; stroke: #ffffff; stroke-opacity: 0.4; stroke-width: 0.5"/>
     <use xlink:href="#md8b249d49c" x="492.579488" y="185.353176" style="fill: #dc2626; fill-opacity: 0.4; stroke: #ffffff; stroke-opacity: 0.4; stroke-width: 0.5"/>
     <use xlink:href="#md8b249d49c" x="503.488953" y="199.031659" style="fill: #dc2626; fill-opacity: 0.4; stroke: #ffffff; stroke-opacity: 0.4; stroke-width: 0.5"/>
     <use xlink:href="#md8b249d49c" x="473.872858" y="190.272351" style="fill: #dc2626; fill-opacity: 0.4; stroke: #ffffff; stroke-opacity: 0.4; stroke-width: 0.5"/>
     <use xlink:href="#md8b249d49c" x="502.836171" y="192.115094" style="fill: #dc2626; fill-opacity: 0.4; stroke: #ffffff; stroke-opacity: 0.4; stroke-width: 0.5"/>
     <use xlink:href="#md8b249d49c" x="452.940992" y="179.723824" style="fill: #dc2626; fill-opacity: 0.4; stroke: #ffffff; stroke-opacity: 0.4; stroke-width: 0.5"/>
     <use xlink:href="#md8b249d49c" x="507.862417" y="214.979727" style="fill: #dc2626; fill-opacity: 0.4; stroke: #ffffff; stroke-opacity: 0.4; stroke-width: 0.5"/>
     <use xlink:href="#md8b249d49c" x="450.659274" y="119.276698" style="fill: #dc2626; fill-opacity: 0.4; stroke: #ffffff; stroke-opacity: 0.4; stroke-width: 0.5"/>
     <use xlink:href="#md8b249d49c" x="529.553133" y="136.298498" style="fill: #dc2626; fill-opacity: 0.4; stroke: #ffffff; stroke-opacity: 0.4; stroke-width: 0.5"/>
     <use xlink:href="#md8b249d49c" x="500.195037" y="208.838112" style="fill: #dc2626; fill-opacity: 0.4; stroke: #ffffff; stroke-opacity: 0.4; stroke-width: 0.5"/>
     <use xlink:href="#md8b249d49c" x="483.851059" y="193.802968" style="fill: #dc2626; fill-opacity: 0.4; stroke: #ffffff; stroke-opacity: 0.4; stroke-width: 0.5"/>
     <use xlink:href="#md8b249d49c" x="517.373968" y="228.30938" style="fill: #dc2626; fill-opacity: 0.4; stroke: #ffffff; stroke-opacity: 0.4; stroke-width: 0.5"/>
     <use xlink:href="#md8b249d49c" x="477.861347" y="233.824478" style="fill: #dc2626; fill-opacity: 0.4; stroke: #ffffff; stroke-opacity: 0.4; stroke-width: 0.5"/>
     <use xlink:href="#md8b249d49c" x="470.594841" y="290.347963" style="fill: #dc2626; fill-opacity: 0.4; stroke: #ffffff; stroke-opacity: 0.4; stroke-width: 0.5"/>
     <use xlink:href="#md8b249d49c" x="520.991002" y="211.249525" style="fill: #dc2626; fill-opacity: 0.4; stroke: #ffffff; stroke-opacity: 0.4; stroke-width: 0.5"/>
     <use xlink:href="#md8b249d49c" x="537.998832" y="208.523265" style="fill: #dc2626; fill-opacity: 0.4; stroke: #ffffff; stroke-opacity: 0.4; stroke-width: 0.5"/>
     <use xlink:href="#md8b249d49c" x="534.191242" y="135.868008" style="fill: #dc2626; fill-opacity: 0.4; stroke: #ffffff; stroke-opacity: 0.4; stroke-width: 0.5"/>
     <use xlink:href="#md8b249d49c" x="496.447448" y="244.098197" style="fill: #dc2626; fill-opacity: 0.4; stroke: #ffffff; stroke-opacity: 0.4; stroke-width: 0.5"/>
     <use xlink:href="#md8b249d49c" x="471.2926" y="173.785078" style="fill: #dc2626; fill-opacity: 0.4; stroke: #ffffff; stroke-opacity: 0.4; stroke-width: 0.5"/>
     <use xlink:href="#md8b249d49c" x="536.325141" y="187.438487" style="fill: #dc2626; fill-opacity: 0.4; stroke: #ffffff; stroke-opacity: 0.4; stroke-width: 0.5"/>
     <use xlink:href="#md8b249d49c" x="523.829522" y="259.563731" style="fill: #dc2626; fill-opacity: 0.4; stroke: #ffffff; stroke-opacity: 0.4; stroke-width: 0.5"/>
     <use xlink:href="#md8b249d49c" x="517.164989" y="214.258939" style="fill: #dc2626; fill-opacity: 0.4; stroke: #ffffff; stroke-opacity: 0.4; stroke-width: 0.5"/>
     <use xlink:href="#md8b249d49c" x="552.442309" y="215.383416" style="fill: #dc2626; fill-opacity: 0.4; stroke: #ffffff; stroke-opacity: 0.4; stroke-width: 0.5"/>
     <use xlink:href="#md8b249d49c" x="495.494465" y="195.513089" style="fill: #dc2626; fill-opacity: 0.4; stroke: #ffffff; stroke-opacity: 0.4; stroke-width: 0.5"/>
     <use xlink:href="#md8b249d49c" x="495.254199" y="198.571634" style="fill: #dc2626; fill-opacity: 0.4; stroke: #ffffff; stroke-opacity: 0.4; stroke-width: 0.5"/>
     <use xlink:href="#md8b249d49c" x="525.748517" y="121.341794" style="fill: #dc2626; fill-opacity: 0.4; stroke: #ffffff; stroke-opacity: 0.4; stroke-width: 0.5"/>
     <use xlink:href="#md8b249d49c" x="518.96231" y="249.102248" style="fill: #dc2626; fill-opacity: 0.4; stroke: #ffffff; stroke-opacity: 0.4; stroke-width: 0.5"/>
     <use xlink:href="#md8b249d49c" x="526.846684" y="185.629944" style="fill: #dc2626; fill-opacity: 0.4; stroke: #ffffff; stroke-opacity: 0.4; stroke-width: 0.5"/>
     <use xlink:href="#md8b249d49c" x="478.070114" y="167.80271" style="fill: #dc2626; fill-opacity: 0.4; stroke: #ffffff; stroke-opacity: 0.4; stroke-width: 0.5"/>
     <use xlink:href="#md8b249d49c" x="530.212903" y="186.655154" style="fill: #dc2626; fill-opacity: 0.4; stroke: #ffffff; stroke-opacity: 0.4; stroke-width: 0.5"/>
     <use xlink:href="#md8b249d49c" x="466.201549" y="223.559296" style="fill: #dc2626; fill-opacity: 0.4; stroke: #ffffff; stroke-opacity: 0.4; stroke-width: 0.5"/>
     <use xlink:href="#md8b249d49c" x="523.937247" y="208.890962" style="fill: #dc2626; fill-opacity: 0.4; stroke: #ffffff; stroke-opacity: 0.4; stroke-width: 0.5"/>
     <use xlink:href="#md8b249d49c" x="493.987688" y="214.809091" style="fill: #dc2626; fill-opacity: 0.4; stroke: #ffffff; stroke-opacity: 0.4; stroke-width: 0.5"/>
     <use xlink:href="#md8b249d49c" x="500.33012" y="198.685892" style="fill: #dc2626; fill-opacity: 0.4; stroke: #ffffff; stroke-opacity: 0.4; stroke-width: 0.5"/>
     <use xlink:href="#md8b249d49c" x="489.415566" y="214.20619" style="fill: #dc2626; fill-opacity: 0.4; stroke: #ffffff; stroke-opacity: 0.4; stroke-width: 0.5"/>
     <use xlink:href="#md8b249d49c" x="536.048792" y="192.969338" style="fill: #dc2626; fill-opacity: 0.4; stroke: #ffffff; stroke-opacity: 0.4; stroke-width: 0.5"/>
    </g>
   </g>
   <g id="text_10">
    <!-- Distribution Comparison -->
    <g style="fill: #1e3a8a" transform="translate(243.146362 31.791562) scale(0.14 -0.14)">
     <defs>
      <path id="Arial-BoldMT-44" d="M 463 4581 
L 2153 4581 
Q 2725 4581 3025 4494 
Q 3428 4375 3715 4072 
Q 4003 3769 4153 3330 
Q 4303 2891 4303 2247 
Q 4303 1681 4163 1272 
Q 3991 772 3672 463 
Q 3431 228 3022 97 
Q 2716 0 2203 0 
L 463 0 
L 463 4581 
z
M 1388 3806 
L 1388 772 
L 2078 772 
Q 2466 772 2638 816 
Q 2863 872 3011 1006 
Q 3159 1141 3253 1448 
Q 3347 1756 3347 2288 
Q 3347 2819 3253 3103 
Q 3159 3388 2990 3547 
Q 2822 3706 2563 3763 
Q 2369 3806 1803 3806 
L 1388 3806 
z
" transform="scale(0.015625)"/>
      <path id="Arial-BoldMT-69" d="M 459 3769 
L 459 4581 
L 1338 4581 
L 1338 3769 
L 459 3769 
z
M 459 0 
L 459 3319 
L 1338 3319 
L 1338 0 
L 459 0 
z
" transform="scale(0.015625)"/>
      <path id="Arial-BoldMT-73" d="M 150 947 
L 1031 1081 
Q 1088 825 1259 692 
Q 1431 559 1741 559 
Q 2081 559 2253 684 
Q 2369 772 2369 919 
Q 2369 1019 2306 1084 
Q 2241 1147 2013 1200 
Q 950 1434 666 1628 
Q 272 1897 272 2375 
Q 272 2806 612 3100 
Q 953 3394 1669 3394 
Q 2350 3394 2681 3172 
Q 3013 2950 3138 2516 
L 2309 2363 
Q 2256 2556 2107 2659 
Q 1959 2763 1684 2763 
Q 1338 2763 1188 2666 
Q 1088 2597 1088 2488 
Q 1088 2394 1175 2328 
Q 1294 2241 1995 2081 
Q 2697 1922 2975 1691 
Q 3250 1456 3250 1038 
Q 3250 581 2869 253 
Q 2488 -75 1741 -75 
Q 1063 -75 667 200 
Q 272 475 150 947 
z
" transform="scale(0.015625)"/>
      <path id="Arial-BoldMT-74" d="M 1981 3319 
L 1981 2619 
L 1381 2619 
L 1381 1281 
Q 1381 875 1398 808 
Q 1416 741 1477 697 
Q 1538 653 1625 653 
Q 1747 653 1978 738 
L 2053 56 
Q 1747 -75 1359 -75 
Q 1122 -75 931 4 
Q 741 84 652 211 
Q 563 338 528 553 
Q 500 706 500 1172 
L 500 2619 
L 97 2619 
L 97 3319 
L 500 3319 
L 500 3978 
L 1381 4491 
L 1381 3319 
L 1981 3319 
z
" transform="scale(0.015625)"/>
      <path id="Arial-BoldMT-72" d="M 1300 0 
L 422 0 
L 422 3319 
L 1238 3319 
L 1238 2847 
Q 1447 3181 1614 3287 
Q 1781 3394 1994 3394 
Q 2294 3394 2572 3228 
L 2300 2463 
Q 2078 2606 1888 2606 
Q 1703 2606 1575 2504 
Q 1447 2403 1373 2137 
Q 1300 1872 1300 1025 
L 1300 0 
z
" transform="scale(0.015625)"/>
      <path id="Arial-BoldMT-62" d="M 422 0 
L 422 4581 
L 1300 4581 
L 1300 2931 
Q 1706 3394 2263 3394 
Q 2869 3394 3266 2955 
Q 3663 2516 3663 1694 
Q 3663 844 3258 384 
Q 2853 -75 2275 -75 
Q 1991 -75 1714 67 
Q 1438 209 1238 488 
L 1238 0 
L 422 0 
z
M 1294 1731 
Q 1294 1216 1456 969 
Q 1684 619 2063 619 
Q 2353 619 2558 867 
Q 2763 1116 2763 1650 
Q 2763 2219 2556 2470 
Q 2350 2722 2028 2722 
Q 1713 2722 1503 2476 
Q 1294 2231 1294 1731 
z
" transform="scale(0.015625)"/>
      <path id="Arial-BoldMT-75" d="M 2644 0 
L 2644 497 
Q 2463 231 2167 78 
Q 1872 -75 1544 -75 
Q 1209 -75 943 72 
Q 678 219 559 484 
Q 441 750 441 1219 
L 441 3319 
L 1319 3319 
L 1319 1794 
Q 1319 1094 1367 936 
Q 1416 778 1544 686 
Q 1672 594 1869 594 
Q 2094 594 2272 717 
Q 2450 841 2515 1023 
Q 2581 1206 2581 1919 
L 2581 3319 
L 3459 3319 
L 3459 0 
L 2644 0 
z
" transform="scale(0.015625)"/>
      <path id="Arial-BoldMT-6f" d="M 256 1706 
Q 256 2144 472 2553 
Q 688 2963 1083 3178 
Q 1478 3394 1966 3394 
Q 2719 3394 3200 2905 
Q 3681 2416 3681 1669 
Q 3681 916 3195 420 
Q 2709 -75 1972 -75 
Q 1516 -75 1102 131 
Q 688 338 472 736 
Q 256 1134 256 1706 
z
M 1156 1659 
Q 1156 1166 1390 903 
Q 1625 641 1969 641 
Q 2313 641 2545 903 
Q 2778 1166 2778 1666 
Q 2778 2153 2545 2415 
Q 2313 2678 1969 2678 
Q 1625 2678 1390 2415 
Q 1156 2153 1156 1659 
z
" transform="scale(0.015625)"/>
      <path id="Arial-BoldMT-6e" d="M 3478 0 
L 2600 0 
L 2600 1694 
Q 2600 2231 2544 2389 
Q 2488 2547 2361 2634 
Q 2234 2722 2056 2722 
Q 1828 2722 1647 2597 
Q 1466 2472 1398 2265 
Q 1331 2059 1331 1503 
L 1331 0 
L 453 0 
L 453 3319 
L 1269 3319 
L 1269 2831 
Q 1703 3394 2363 3394 
Q 2653 3394 2893 3289 
Q 3134 3184 3257 3021 
Q 3381 2859 3429 2653 
Q 3478 2447 3478 2063 
L 3478 0 
z
" transform="scale(0.015625)"/>
      <path id="Arial-BoldMT-20" transform="scale(0.015625)"/>
      <path id="Arial-BoldMT-43" d="M 3397 1684 
L 4294 1400 
Q 4088 650 3608 286 
Q 3128 -78 2391 -78 
Q 1478 -78 890 545 
Q 303 1169 303 2250 
Q 303 3394 893 4026 
Q 1484 4659 2447 4659 
Q 3288 4659 3813 4163 
Q 4125 3869 4281 3319 
L 3366 3100 
Q 3284 3456 3026 3662 
Q 2769 3869 2400 3869 
Q 1891 3869 1573 3503 
Q 1256 3138 1256 2319 
Q 1256 1450 1568 1081 
Q 1881 713 2381 713 
Q 2750 713 3015 947 
Q 3281 1181 3397 1684 
z
" transform="scale(0.015625)"/>
      <path id="Arial-BoldMT-6d" d="M 394 3319 
L 1203 3319 
L 1203 2866 
Q 1638 3394 2238 3394 
Q 2556 3394 2790 3262 
Q 3025 3131 3175 2866 
Q 3394 3131 3647 3262 
Q 3900 3394 4188 3394 
Q 4553 3394 4806 3245 
Q 5059 3097 5184 2809 
Q 5275 2597 5275 2122 
L 5275 0 
L 4397 0 
L 4397 1897 
Q 4397 2391 4306 2534 
Q 4184 2722 3931 2722 
Q 3747 2722 3584 2609 
Q 3422 2497 3350 2280 
Q 3278 2063 3278 1594 
L 3278 0 
L 2400 0 
L 2400 1819 
Q 2400 2303 2353 2443 
Q 2306 2584 2207 2653 
Q 2109 2722 1941 2722 
Q 1738 2722 1575 2612 
Q 1413 2503 1342 2297 
Q 1272 2091 1272 1613 
L 1272 0 
L 394 0 
L 394 3319 
z
" transform="scale(0.015625)"/>
      <path id="Arial-BoldMT-70" d="M 434 3319 
L 1253 3319 
L 1253 2831 
Q 1413 3081 1684 3237 
Q 1956 3394 2288 3394 
Q 2866 3394 3269 2941 
Q 3672 2488 3672 1678 
Q 3672 847 3265 386 
Q 2859 -75 2281 -75 
Q 2006 -75 1782 34 
Q 1559 144 1313 409 
L 1313 -1263 
L 434 -1263 
L 434 3319 
z
M 1303 1716 
Q 1303 1156 1525 889 
Q 1747 622 2066 622 
Q 2372 622 2575 867 
Q 2778 1113 2778 1672 
Q 2778 2194 2568 2447 
Q 2359 2700 2050 2700 
Q 1728 2700 1515 2451 
Q 1303 2203 1303 1716 
z
" transform="scale(0.015625)"/>
      <path id="Arial-BoldMT-61" d="M 1116 2306 
L 319 2450 
Q 453 2931 781 3162 
Q 1109 3394 1756 3394 
Q 2344 3394 2631 3255 
Q 2919 3116 3036 2902 
Q 3153 2688 3153 2116 
L 3144 1091 
Q 3144 653 3186 445 
Q 3228 238 3344 0 
L 2475 0 
Q 2441 88 2391 259 
Q 2369 338 2359 363 
Q 2134 144 1878 34 
Q 1622 -75 1331 -75 
Q 819 -75 523 203 
Q 228 481 228 906 
Q 228 1188 362 1408 
Q 497 1628 739 1745 
Q 981 1863 1438 1950 
Q 2053 2066 2291 2166 
L 2291 2253 
Q 2291 2506 2166 2614 
Q 2041 2722 1694 2722 
Q 1459 2722 1328 2630 
Q 1197 2538 1116 2306 
z
M 2291 1594 
Q 2122 1538 1756 1459 
Q 1391 1381 1278 1306 
Q 1106 1184 1106 997 
Q 1106 813 1243 678 
Q 1381 544 1594 544 
Q 1831 544 2047 700 
Q 2206 819 2256 991 
Q 2291 1103 2291 1419 
L 2291 1594 
z
" transform="scale(0.015625)"/>
     </defs>
     <use xlink:href="#Arial-BoldMT-44"/>
     <use xlink:href="#Arial-BoldMT-69" transform="translate(72.216797 0)"/>
     <use xlink:href="#Arial-BoldMT-73" transform="translate(100 0)"/>
     <use xlink:href="#Arial-BoldMT-74" transform="translate(155.615234 0)"/>
     <use xlink:href="#Arial-BoldMT-72" transform="translate(188.916016 0)"/>
     <use xlink:href="#Arial-BoldMT-69" transform="translate(227.832031 0)"/>
     <use xlink:href="#Arial-BoldMT-62" transform="translate(255.615234 0)"/>
     <use xlink:href="#Arial-BoldMT-75" transform="translate(316.699219 0)"/>
     <use xlink:href="#Arial-BoldMT-74" transform="translate(377.783203 0)"/>
     <use xlink:href="#Arial-BoldMT-69" transform="translate(411.083984 0)"/>
     <use xlink:href="#Arial-BoldMT-6f" transform="translate(438.867188 0)"/>
     <use xlink:href="#Arial-BoldMT-6e" transform="translate(499.951172 0)"/>
     <use xlink:href="#Arial-BoldMT-20" transform="translate(561.035156 0)"/>
     <use xlink:href="#Arial-BoldMT-43" transform="translate(588.818359 0)"/>
     <use xlink:href="#Arial-BoldMT-6f" transform="translate(661.035156 0)"/>
     <use xlink:href="#Arial-BoldMT-6d" transform="translate(722.119141 0)"/>
     <use xlink:href="#Arial-BoldMT-70" transform="translate(811.035156 0)"/>
     <use xlink:href="#Arial-BoldMT-61" transform="translate(872.119141 0)"/>
     <use xlink:href="#Arial-BoldMT-72" transform="translate(927.734375 0)"/>
     <use xlink:href="#Arial-BoldMT-69" transform="translate(966.650391 0)"/>
     <use xlink:href="#Arial-BoldMT-73" transform="translate(994.433594 0)"/>
     <use xlink:href="#Arial-BoldMT-6f" transform="translate(1050.048828 0)"/>
     <use xlink:href="#Arial-BoldMT-6e" transform="translate(1111.132812 0)"/>
    </g>
   </g>
  </g>
 </g>
 <defs>
  <clipPath id="p7213baa3f4">
   <rect x="58.795078" y="41.791562" width="532.804442" height="316.005859"/>
  </clipPath>
 </defs>
</svg>
