<?xml version="1.0" encoding="utf-8" standalone="no"?>
<!DOCTYPE svg PUBLIC "-//W3C//DTD SVG 1.1//EN"
  "http://www.w3.org/Graphics/SVG/1.1/DTD/svg11.dtd">
<svg xmlns:xlink="http://www.w3.org/1999/xlink" width="576pt" height="360pt" viewBox="0 0 576 360" xmlns="http://www.w3.org/2000/svg" version="1.1">
 <metadata>
  <rdf:RDF xmlns:dc="http://purl.org/dc/elements/1.1/" xmlns:cc="http://creativecommons.org/ns#" xmlns:rdf="http://www.w3.org/1999/02/22-rdf-syntax-ns#">
   <cc:Work>
    <dc:type rdf:resource="http://purl.org/dc/dcmitype/StillImage"/>
    <dc:date>2026-03-27T10:21:55.768967</dc:date>
    <dc:format>image/svg+xml</dc:format>
    <dc:creator>
     <cc:Agent>
      <dc:title>Matplotlib v3.10.8, https://matplotlib.org/</dc:title>
     </cc:Agent>
    </dc:creator>
   </cc:Work>
  </rdf:RDF>
 </metadata>
 <defs>
  <style type="text/css">*{stroke-linejoin: round; stroke-linecap: butt}</style>
 </defs>
 <g id="figure_1">
  <g id="patch_1">
   <path d="M 0 360 
L 576 360 
L 576 0 
L 0 0 
z
" style="fill: #ffffff"/>
  </g>
  <g id="patch_2">
   <path d="M 0 360 
L 576 360 
L 576 0 
L 0 0 
L 0 360 
z
" style="fill: none; stroke: #ffffff; stroke-linejoin: miter"/>
  </g>
  <g id="axes_1">
   <g id="patch_3">
    <path d="M 45.016461 323.035625 
L 513.250625 323.035625 
L 513.250625 25.349922 
L 45.016461 25.349922 
z
" style="fill: #ffffff"/>
   </g>
   <g id="matplotlib.axis_1">
    <g id="xtick_1">
     <g id="line2d_1">
      <path d="M 111.907056 323.035625 
" style="fill: none; stroke: #64748b; stroke-width: 1.5; stroke-linecap: square"/>
      <defs>
       <path id="m7fba83ed58" d="M 0 0 
L 0 2.75 
" style="stroke: #64748b"/>
      </defs>
      <g>
       <use xlink:href="#m7fba83ed58" x="111.907056" y="323.035625" style="fill: #64748b; stroke: #64748b"/>
      </g>
     </g>
     <g id="text_1">
      <!-- Q1 -->
      <g style="fill: #0f172a" transform="translate(105.786458 335.588) scale(0.1045 -0.1045)">
       <defs>
        <path id="Inter-Regular-51" d="M 2450 -63 
C 2750 -63 3028 -6 3278 103 
L 3681 -438 
L 4300 -438 
L 3700 359 
C 4203 766 4513 1444 4513 2325 
C 4513 3803 3644 4719 2450 4719 
C 1256 4719 381 3803 381 2325 
C 381 850 1256 -63 2450 -63 
z
M 2256 1456 
L 2931 566 
C 2781 516 2619 488 2450 488 
C 1613 488 959 1138 959 2325 
C 959 3519 1613 4169 2450 4169 
C 3281 4169 3934 3522 3934 2325 
C 3934 1631 3713 1122 3363 816 
L 2875 1456 
L 2256 1456 
z
" transform="scale(0.015625)"/>
        <path id="Inter-Regular-31" d="M 2041 4656 
L 1313 4656 
L 300 3909 
L 300 3272 
L 1425 4106 
L 1456 4106 
L 1456 0 
L 2041 0 
L 2041 4656 
z
" transform="scale(0.015625)"/>
       </defs>
       <use xlink:href="#Inter-Regular-51"/>
       <use xlink:href="#Inter-Regular-31" transform="translate(76.464844 0)"/>
      </g>
     </g>
    </g>
    <g id="xtick_2">
     <g id="line2d_2">
      <path d="M 223.391381 323.035625 
" style="fill: none; stroke: #64748b; stroke-width: 1.5; stroke-linecap: square"/>
      <g>
       <use xlink:href="#m7fba83ed58" x="223.391381" y="323.035625" style="fill: #64748b; stroke: #64748b"/>
      </g>
     </g>
     <g id="text_2">
      <!-- Q2 -->
      <g style="fill: #0f172a" transform="translate(216.209455 335.588) scale(0.1045 -0.1045)">
       <defs>
        <path id="Inter-Regular-32" d="M 481 0 
L 3447 0 
L 3447 522 
L 1300 522 
L 1300 559 
L 2319 1644 
C 3141 2519 3369 2916 3369 3419 
C 3369 4147 2778 4719 1947 4719 
C 1119 4719 494 4159 494 3334 
L 1063 3334 
C 1063 3859 1400 4203 1931 4203 
C 2428 4203 2806 3900 2806 3413 
C 2806 2984 2544 2666 2028 2106 
L 481 428 
L 481 0 
z
" transform="scale(0.015625)"/>
       </defs>
       <use xlink:href="#Inter-Regular-51"/>
       <use xlink:href="#Inter-Regular-32" transform="translate(76.464844 0)"/>
      </g>
     </g>
    </g>
    <g id="xtick_3">
     <g id="line2d_3">
      <path d="M 334.875705 323.035625 
" style="fill: none; stroke: #64748b; stroke-width: 1.5; stroke-linecap: square"/>
      <g>
       <use xlink:href="#m7fba83ed58" x="334.875705" y="323.035625" style="fill: #64748b; stroke: #64748b"/>
      </g>
     </g>
     <g id="text_3">
      <!-- Q3 -->
      <g style="fill: #0f172a" transform="translate(327.652959 335.588) scale(0.1045 -0.1045)">
       <defs>
        <path id="Inter-Regular-33" d="M 1984 -63 
C 2897 -63 3572 503 3572 1266 
C 3572 1853 3225 2284 2631 2381 
L 2631 2419 
C 3106 2559 3403 2944 3403 3469 
C 3403 4131 2872 4719 2003 4719 
C 1184 4719 516 4216 491 3484 
L 1063 3484 
C 1081 3938 1516 4203 1991 4203 
C 2497 4203 2822 3900 2822 3438 
C 2822 2956 2447 2644 1903 2644 
L 1525 2644 
L 1525 2128 
L 1903 2128 
C 2594 2128 2984 1775 2984 1272 
C 2984 788 2559 459 1975 459 
C 1444 459 1025 731 991 1175 
L 391 1175 
C 422 438 1072 -63 1984 -63 
z
" transform="scale(0.015625)"/>
       </defs>
       <use xlink:href="#Inter-Regular-51"/>
       <use xlink:href="#Inter-Regular-33" transform="translate(76.464844 0)"/>
      </g>
     </g>
    </g>
    <g id="xtick_4">
     <g id="line2d_4">
      <path d="M 446.36003 323.035625 
" style="fill: none; stroke: #64748b; stroke-width: 1.5; stroke-linecap: square"/>
      <g>
       <use xlink:href="#m7fba83ed58" x="446.36003" y="323.035625" style="fill: #64748b; stroke: #64748b"/>
      </g>
     </g>
     <g id="text_4">
      <!-- Q4 -->
      <g style="fill: #0f172a" transform="translate(438.989515 335.588) scale(0.1045 -0.1045)">
       <defs>
        <path id="Inter-Regular-34" d="M 375 947 
L 2566 947 
L 2566 0 
L 3134 0 
L 3134 947 
L 3766 947 
L 3766 1469 
L 3134 1469 
L 3134 4656 
L 2413 4656 
L 375 1431 
L 375 947 
z
M 2569 1469 
L 1009 1469 
L 1009 1506 
L 2531 3913 
L 2569 3913 
L 2569 1469 
z
" transform="scale(0.015625)"/>
       </defs>
       <use xlink:href="#Inter-Regular-51"/>
       <use xlink:href="#Inter-Regular-34" transform="translate(76.464844 0)"/>
      </g>
     </g>
    </g>
   </g>
   <g id="matplotlib.axis_2">
    <g id="ytick_1">
     <g id="line2d_5">
      <path d="M 45.016461 309.504457 
L 513.250625 309.504457 
" clip-path="url(#pc64a656f9e)" style="fill: none; stroke: #e2e8f0; stroke-opacity: 0.501961; stroke-width: 0.6; stroke-linecap: square"/>
     </g>
     <g id="line2d_6">
      <path d="M 45.016461 309.504457 
" style="fill: none; stroke: #64748b; stroke-width: 1.5; stroke-linecap: square"/>
      <defs>
       <path id="m460eb0c115" d="M 0 0 
L -2.75 0 
" style="stroke: #64748b"/>
      </defs>
      <g>
       <use xlink:href="#m460eb0c115" x="45.016461" y="309.504457" style="fill: #64748b; stroke: #64748b"/>
      </g>
     </g>
     <g id="text_5">
      <!-- 0 -->
      <g style="fill: #0f172a" transform="translate(33.473164 313.305644) scale(0.1045 -0.1045)">
       <defs>
        <path id="Inter-Regular-30" d="M 2019 -63 
C 3059 -63 3656 809 3656 2325 
C 3656 3834 3050 4719 2019 4719 
C 988 4719 381 3834 381 2325 
C 381 806 981 -63 2019 -63 
z
M 2019 456 
C 1338 456 953 1144 953 2325 
C 953 3509 1338 4203 2019 4203 
C 2700 4203 3084 3513 3084 2325 
C 3084 1144 2700 456 2019 456 
z
" transform="scale(0.015625)"/>
       </defs>
       <use xlink:href="#Inter-Regular-30"/>
      </g>
     </g>
    </g>
    <g id="ytick_2">
     <g id="line2d_7">
      <path d="M 45.016461 245.070322 
L 513.250625 245.070322 
" clip-path="url(#pc64a656f9e)" style="fill: none; stroke: #e2e8f0; stroke-opacity: 0.501961; stroke-width: 0.6; stroke-linecap: square"/>
     </g>
     <g id="line2d_8">
      <path d="M 45.016461 245.070322 
" style="fill: none; stroke: #64748b; stroke-width: 1.5; stroke-linecap: square"/>
      <g>
       <use xlink:href="#m460eb0c115" x="45.016461" y="245.070322" style="fill: #64748b; stroke: #64748b"/>
      </g>
     </g>
     <g id="text_6">
      <!-- 25 -->
      <g style="fill: #0f172a" transform="translate(27.493805 248.871509) scale(0.1045 -0.1045)">
       <defs>
        <path id="Inter-Regular-35" d="M 1863 -63 
C 2759 -63 3416 594 3416 1488 
C 3416 2388 2788 3047 1934 3047 
C 1613 3047 1303 2934 1113 2775 
L 1088 2775 
L 1247 4134 
L 3197 4134 
L 3197 4656 
L 747 4656 
L 472 2350 
L 1028 2281 
C 1213 2422 1538 2525 1825 2525 
C 2409 2525 2834 2078 2834 1478 
C 2834 888 2425 459 1863 459 
C 1394 459 1013 759 975 1175 
L 400 1175 
C 431 463 1044 -63 1863 -63 
z
" transform="scale(0.015625)"/>
       </defs>
       <use xlink:href="#Inter-Regular-32"/>
       <use xlink:href="#Inter-Regular-35" transform="translate(60.986328 0)"/>
      </g>
     </g>
    </g>
    <g id="ytick_3">
     <g id="line2d_9">
      <path d="M 45.016461 180.636187 
L 513.250625 180.636187 
" clip-path="url(#pc64a656f9e)" style="fill: none; stroke: #e2e8f0; stroke-opacity: 0.501961; stroke-width: 0.6; stroke-linecap: square"/>
     </g>
     <g id="line2d_10">
      <path d="M 45.016461 180.636187 
" style="fill: none; stroke: #64748b; stroke-width: 1.5; stroke-linecap: square"/>
      <g>
       <use xlink:href="#m460eb0c115" x="45.016461" y="180.636187" style="fill: #64748b; stroke: #64748b"/>
      </g>
     </g>
     <g id="text_7">
      <!-- 50 -->
      <g style="fill: #0f172a" transform="translate(27.273375 184.437374) scale(0.1045 -0.1045)">
       <use xlink:href="#Inter-Regular-35"/>
       <use xlink:href="#Inter-Regular-30" transform="translate(59.326172 0)"/>
      </g>
     </g>
    </g>
    <g id="ytick_4">
     <g id="line2d_11">
      <path d="M 45.016461 116.202052 
L 513.250625 116.202052 
" clip-path="url(#pc64a656f9e)" style="fill: none; stroke: #e2e8f0; stroke-opacity: 0.501961; stroke-width: 0.6; stroke-linecap: square"/>
     </g>
     <g id="line2d_12">
      <path d="M 45.016461 116.202052 
" style="fill: none; stroke: #64748b; stroke-width: 1.5; stroke-linecap: square"/>
      <g>
       <use xlink:href="#m460eb0c115" x="45.016461" y="116.202052" style="fill: #64748b; stroke: #64748b"/>
      </g>
     </g>
     <g id="text_8">
      <!-- 75 -->
      <g style="fill: #0f172a" transform="translate(27.952625 120.00324) scale(0.1045 -0.1045)">
       <defs>
        <path id="Inter-Regular-37" d="M 625 0 
L 1250 0 
L 3316 4103 
L 3316 4656 
L 306 4656 
L 306 4134 
L 2694 4134 
L 2694 4097 
L 625 0 
z
" transform="scale(0.015625)"/>
       </defs>
       <use xlink:href="#Inter-Regular-37"/>
       <use xlink:href="#Inter-Regular-35" transform="translate(56.591797 0)"/>
      </g>
     </g>
    </g>
    <g id="ytick_5">
     <g id="line2d_13">
      <path d="M 45.016461 51.767917 
L 513.250625 51.767917 
" clip-path="url(#pc64a656f9e)" style="fill: none; stroke: #e2e8f0; stroke-opacity: 0.501961; stroke-width: 0.6; stroke-linecap: square"/>
     </g>
     <g id="line2d_14">
      <path d="M 45.016461 51.767917 
" style="fill: none; stroke: #64748b; stroke-width: 1.5; stroke-linecap: square"/>
      <g>
       <use xlink:href="#m460eb0c115" x="45.016461" y="51.767917" style="fill: #64748b; stroke: #64748b"/>
      </g>
     </g>
     <g id="text_9">
      <!-- 100 -->
      <g style="fill: #0f172a" transform="translate(22.629656 55.569105) scale(0.1045 -0.1045)">
       <use xlink:href="#Inter-Regular-31"/>
       <use xlink:href="#Inter-Regular-30" transform="translate(40.673828 0)"/>
       <use xlink:href="#Inter-Regular-30" transform="translate(103.759766 0)"/>
      </g>
     </g>
    </g>
    <g id="ytick_6">
     <g id="line2d_15">
      <path d="M 45.016461 277.287389 
" style="fill: none; stroke: #64748b; stroke-width: 1.5; stroke-linecap: square"/>
      <defs>
       <path id="mb0535361bf" d="M 0 0 
L -1.375 0 
" style="stroke: #64748b"/>
      </defs>
      <g>
       <use xlink:href="#mb0535361bf" x="45.016461" y="277.287389" style="fill: #64748b; stroke: #64748b"/>
      </g>
     </g>
    </g>
    <g id="ytick_7">
     <g id="line2d_16">
      <path d="M 45.016461 212.853254 
" style="fill: none; stroke: #64748b; stroke-width: 1.5; stroke-linecap: square"/>
      <g>
       <use xlink:href="#mb0535361bf" x="45.016461" y="212.853254" style="fill: #64748b; stroke: #64748b"/>
      </g>
     </g>
    </g>
    <g id="ytick_8">
     <g id="line2d_17">
      <path d="M 45.016461 148.419119 
" style="fill: none; stroke: #64748b; stroke-width: 1.5; stroke-linecap: square"/>
      <g>
       <use xlink:href="#mb0535361bf" x="45.016461" y="148.419119" style="fill: #64748b; stroke: #64748b"/>
      </g>
     </g>
    </g>
    <g id="ytick_9">
     <g id="line2d_18">
      <path d="M 45.016461 83.984985 
" style="fill: none; stroke: #64748b; stroke-width: 1.5; stroke-linecap: square"/>
      <g>
       <use xlink:href="#mb0535361bf" x="45.016461" y="83.984985" style="fill: #64748b; stroke: #64748b"/>
      </g>
     </g>
    </g>
   </g>
   <g id="PolyCollection_1">
    <path d="M 61.73911 309.504457 
L 61.73911 90.428398 
L 162.075002 90.428398 
L 162.075002 309.504457 
z
" clip-path="url(#pc64a656f9e)" style="fill: #2563eb"/>
    <path d="M 173.223434 309.504457 
L 173.223434 72.38684 
L 273.559327 72.38684 
L 273.559327 309.504457 
z
" clip-path="url(#pc64a656f9e)" style="fill: #dc2626"/>
    <path d="M 284.707759 309.504457 
L 284.707759 108.469956 
L 385.043652 108.469956 
L 385.043652 309.504457 
z
" clip-path="url(#pc64a656f9e)" style="fill: #059669"/>
    <path d="M 396.192084 309.504457 
L 396.192084 38.88109 
L 496.527976 38.88109 
L 496.527976 309.504457 
z
" clip-path="url(#pc64a656f9e)" style="fill: #d97706"/>
   </g>
  </g>
  <g id="patch_4">
   <path d="M 45.016461 323.035625 
L 513.250625 323.035625 
L 513.250625 25.349922 
L 45.016461 25.349922 
L 45.016461 323.035625 
z
" style="fill: none; stroke: #7f7f7f; stroke-linejoin: miter"/>
  </g>
  <g id="text_10">
   <!-- Quarterly Revenue -->
   <g style="fill: #1e3a8a" transform="translate(212.164718 16.547339) scale(0.1463 -0.1463)">
    <defs>
     <path id="Inter-Bold-51" d="M 2466 -63 
C 2769 -63 3050 -9 3306 91 
L 3691 -388 
L 4581 -388 
L 3909 459 
C 4359 866 4638 1500 4638 2325 
C 4638 3847 3700 4719 2466 4719 
C 1231 4719 294 3847 294 2325 
C 294 813 1231 -63 2466 -63 
z
M 2172 1600 
L 2766 819 
C 2672 797 2572 784 2466 784 
C 1744 784 1263 1328 1263 2325 
C 1263 3325 1744 3872 2466 3872 
C 3188 3872 3669 3328 3669 2325 
C 3669 1816 3544 1425 3325 1166 
L 2988 1600 
L 2172 1600 
z
" transform="scale(0.015625)"/>
     <path id="Inter-Bold-75" d="M 1603 -44 
C 2134 -44 2491 231 2688 725 
L 2700 0 
L 3588 0 
L 3588 3494 
L 2647 3494 
L 2647 1472 
C 2647 1009 2366 741 1969 741 
C 1575 741 1338 1000 1338 1434 
L 1338 3494 
L 400 3494 
L 400 1272 
C 400 453 878 -44 1603 -44 
z
" transform="scale(0.015625)"/>
     <path id="Inter-Bold-61" d="M 1375 -69 
C 1891 -69 2228 159 2397 484 
L 2428 484 
L 2428 0 
L 3316 0 
L 3316 2353 
C 3316 3200 2584 3538 1834 3538 
C 1053 3538 491 3191 313 2584 
L 1172 2441 
C 1247 2666 1469 2844 1831 2844 
C 2181 2844 2378 2675 2378 2378 
L 2378 2363 
C 2378 2134 2131 2109 1531 2050 
C 844 1984 213 1759 213 978 
C 213 288 709 -69 1375 -69 
z
M 1641 591 
C 1331 591 1113 731 1113 1003 
C 1113 1284 1344 1419 1691 1469 
C 1897 1497 2269 1547 2384 1628 
L 2384 1250 
C 2384 881 2078 591 1641 591 
z
" transform="scale(0.015625)"/>
     <path id="Inter-Bold-72" d="M 400 0 
L 1338 0 
L 1338 1988 
C 1338 2422 1653 2719 2084 2719 
C 2222 2719 2406 2697 2491 2672 
L 2491 3509 
C 2406 3528 2284 3541 2188 3541 
C 1794 3541 1472 3316 1344 2884 
L 1306 2884 
L 1306 3494 
L 400 3494 
L 400 0 
z
" transform="scale(0.015625)"/>
     <path id="Inter-Bold-74" d="M 2134 3494 
L 1481 3494 
L 1481 4325 
L 544 4325 
L 544 3494 
L 63 3494 
L 63 2778 
L 544 2778 
L 544 941 
C 544 300 925 -50 1625 -50 
C 1813 -50 2022 -28 2231 34 
L 2097 738 
C 2028 719 1872 697 1800 697 
C 1572 697 1481 800 1481 1022 
L 1481 2778 
L 2134 2778 
L 2134 3494 
z
" transform="scale(0.015625)"/>
     <path id="Inter-Bold-65" d="M 1978 -69 
C 2791 -69 3347 309 3519 891 
L 2669 1050 
C 2569 781 2322 638 1994 638 
C 1522 638 1203 931 1181 1503 
L 3572 1503 
L 3572 1766 
C 3572 2959 2844 3538 1931 3538 
C 909 3538 253 2806 253 1728 
C 253 625 909 -69 1978 -69 
z
M 1188 2091 
C 1225 2522 1494 2831 1941 2831 
C 2375 2831 2622 2547 2669 2091 
L 1188 2091 
z
" transform="scale(0.015625)"/>
     <path id="Inter-Bold-6c" d="M 1338 4656 
L 400 4656 
L 400 0 
L 1338 0 
L 1338 4656 
z
" transform="scale(0.015625)"/>
     <path id="Inter-Bold-79" d="M 375 -1238 
C 509 -1291 741 -1331 988 -1331 
C 1688 -1331 2056 -978 2269 -413 
L 3753 3494 
L 2769 3494 
L 2156 1681 
C 2056 1381 1975 1081 1903 769 
C 1838 1078 1775 1378 1681 1681 
L 1094 3494 
L 97 3494 
L 1409 -9 
L 1384 -197 
C 1344 -547 1084 -663 706 -559 
L 591 -531 
L 375 -1238 
z
" transform="scale(0.015625)"/>
     <path id="Inter-Bold-20" transform="scale(0.015625)"/>
     <path id="Inter-Bold-52" d="M 422 0 
L 1375 0 
L 1375 1663 
L 2125 1663 
L 3013 0 
L 4069 0 
L 3078 1816 
C 3609 2044 3903 2503 3903 3141 
C 3903 4056 3297 4656 2238 4656 
L 422 4656 
L 422 0 
z
M 1375 2434 
L 1375 3869 
L 2059 3869 
C 2644 3869 2919 3609 2919 3141 
C 2919 2675 2644 2434 2063 2434 
L 1375 2434 
z
" transform="scale(0.015625)"/>
     <path id="Inter-Bold-76" d="M 1384 0 
L 2450 0 
L 3741 3494 
L 2756 3494 
L 2175 1681 
C 2078 1366 2003 1053 1931 728 
C 1856 1053 1778 1369 1681 1681 
L 1094 3494 
L 97 3494 
L 1384 0 
z
" transform="scale(0.015625)"/>
     <path id="Inter-Bold-6e" d="M 1338 2022 
C 1338 2484 1616 2753 2016 2753 
C 2409 2753 2647 2494 2647 2059 
L 2647 0 
L 3584 0 
L 3584 2222 
C 3584 3041 3109 3538 2384 3538 
C 1847 3538 1494 3259 1297 2772 
L 1284 3494 
L 400 3494 
L 400 0 
L 1338 0 
L 1338 2022 
z
" transform="scale(0.015625)"/>
    </defs>
    <use xlink:href="#Inter-Bold-51"/>
    <use xlink:href="#Inter-Bold-75" transform="translate(77.685547 0)"/>
    <use xlink:href="#Inter-Bold-61" transform="translate(139.941406 0)"/>
    <use xlink:href="#Inter-Bold-72" transform="translate(197.998047 0)"/>
    <use xlink:href="#Inter-Bold-74" transform="translate(238.720703 0)"/>
    <use xlink:href="#Inter-Bold-65" transform="translate(275.341797 0)"/>
    <use xlink:href="#Inter-Bold-72" transform="translate(334.912109 0)"/>
    <use xlink:href="#Inter-Bold-6c" transform="translate(375.634766 0)"/>
    <use xlink:href="#Inter-Bold-79" transform="translate(402.734375 0)"/>
    <use xlink:href="#Inter-Bold-20" transform="translate(462.939453 0)"/>
    <use xlink:href="#Inter-Bold-52" transform="translate(486.621094 0)"/>
    <use xlink:href="#Inter-Bold-65" transform="translate(552.294922 0)"/>
    <use xlink:href="#Inter-Bold-76" transform="translate(611.865234 0)"/>
    <use xlink:href="#Inter-Bold-65" transform="translate(671.826172 0)"/>
    <use xlink:href="#Inter-Bold-6e" transform="translate(731.396484 0)"/>
    <use xlink:href="#Inter-Bold-75" transform="translate(793.652344 0)"/>
    <use xlink:href="#Inter-Bold-65" transform="translate(855.908203 0)"/>
   </g>
  </g>
  <g id="text_11">
   <!-- quarter -->
   <g style="fill: #0f172a" transform="translate(258.286695 351.883078) scale(0.1155 -0.1155)">
    <defs>
     <path id="Inter-Bold-71" d="M 3634 -1306 
L 3634 3494 
L 2713 3494 
L 2713 2906 
L 2666 2906 
C 2541 3184 2266 3538 1672 3538 
C 897 3538 253 2934 253 1741 
C 253 578 872 -59 1678 -59 
C 2247 -59 2538 278 2666 559 
L 2697 559 
L 2697 -1306 
L 3634 -1306 
z
M 1966 694 
C 1478 694 1216 1128 1216 1744 
C 1216 2356 1472 2788 1966 2788 
C 2447 2788 2716 2378 2716 1744 
C 2716 1113 2444 694 1966 694 
z
" transform="scale(0.015625)"/>
    </defs>
    <use xlink:href="#Inter-Bold-71"/>
    <use xlink:href="#Inter-Bold-75" transform="translate(63.037109 0)"/>
    <use xlink:href="#Inter-Bold-61" transform="translate(125.292969 0)"/>
    <use xlink:href="#Inter-Bold-72" transform="translate(183.349609 0)"/>
    <use xlink:href="#Inter-Bold-74" transform="translate(224.072266 0)"/>
    <use xlink:href="#Inter-Bold-65" transform="translate(260.693359 0)"/>
    <use xlink:href="#Inter-Bold-72" transform="translate(320.263672 0)"/>
   </g>
  </g>
  <g id="text_12">
   <!-- Revenue ($M) -->
   <g style="fill: #0f172a" transform="translate(14.512734 213.845367) rotate(-90) scale(0.1155 -0.1155)">
    <defs>
     <path id="Inter-Bold-28" d="M 528 1897 
C 528 959 806 3 1334 -872 
L 2206 -872 
C 1694 297 1484 1078 1484 1897 
C 1484 2834 1753 3969 2206 4941 
L 1334 4941 
C 863 4184 528 2928 528 1897 
z
" transform="scale(0.015625)"/>
     <path id="Inter-Bold-24" d="M 1938 -628 
L 2313 -628 
L 2313 -63 
C 3331 -6 3925 525 3925 1325 
C 3925 2106 3319 2506 2534 2688 
L 2313 2741 
L 2313 3906 
C 2681 3856 2909 3653 2941 3328 
L 3863 3328 
C 3847 4100 3247 4653 2313 4713 
L 2313 5284 
L 1938 5284 
L 1938 4713 
C 1031 4641 391 4100 391 3316 
C 391 2638 863 2241 1650 2050 
L 1938 1978 
L 1938 747 
C 1519 797 1222 1028 1194 1444 
L 266 1444 
C 291 513 928 -6 1938 -63 
L 1938 -628 
z
M 2313 750 
L 2313 1881 
C 2728 1766 2966 1619 2966 1331 
C 2966 1025 2713 803 2313 750 
z
M 1938 2838 
C 1619 2934 1369 3084 1369 3378 
C 1369 3644 1572 3850 1938 3903 
L 1938 2838 
z
" transform="scale(0.015625)"/>
     <path id="Inter-Bold-4d" d="M 422 0 
L 1369 0 
L 1369 2197 
C 1369 2547 1344 3231 1334 3797 
C 1500 3172 1688 2519 1797 2197 
L 2581 0 
L 3384 0 
L 4156 2197 
C 4266 2528 4463 3206 4619 3834 
C 4609 3247 4584 2547 4584 2197 
L 4584 0 
L 5544 0 
L 5544 4656 
L 4075 4656 
L 3331 2519 
C 3238 2222 3094 1600 2988 1097 
C 2878 1603 2734 2225 2641 2519 
L 1884 4656 
L 422 4656 
L 422 0 
z
" transform="scale(0.015625)"/>
     <path id="Inter-Bold-29" d="M 209 -872 
L 1078 -872 
C 1603 -3 1884 953 1884 1897 
C 1884 2928 1550 4188 1078 4941 
L 209 4941 
C 659 3969 928 2834 928 1897 
C 928 1088 728 313 209 -872 
z
" transform="scale(0.015625)"/>
    </defs>
    <use xlink:href="#Inter-Bold-52"/>
    <use xlink:href="#Inter-Bold-65" transform="translate(65.673828 0)"/>
    <use xlink:href="#Inter-Bold-76" transform="translate(125.244141 0)"/>
    <use xlink:href="#Inter-Bold-65" transform="translate(185.205078 0)"/>
    <use xlink:href="#Inter-Bold-6e" transform="translate(244.775391 0)"/>
    <use xlink:href="#Inter-Bold-75" transform="translate(307.03125 0)"/>
    <use xlink:href="#Inter-Bold-65" transform="translate(369.287109 0)"/>
    <use xlink:href="#Inter-Bold-20" transform="translate(428.857422 0)"/>
    <use xlink:href="#Inter-Bold-28" transform="translate(452.539062 0)"/>
    <use xlink:href="#Inter-Bold-24" transform="translate(490.234375 0)"/>
    <use xlink:href="#Inter-Bold-4d" transform="translate(555.712891 0)"/>
    <use xlink:href="#Inter-Bold-29" transform="translate(648.876953 0)"/>
   </g>
  </g>
  <g id="patch_5">
   <path d="M 530.530625 215.896367 
L 570.24 215.896367 
L 570.24 132.48918 
L 530.530625 132.48918 
z
" style="fill: #ffffff"/>
  </g>
  <g id="text_13">
   <!-- quarter -->
   <g transform="translate(531.530625 141.49168) scale(0.11 -0.11)">
    <defs>
     <path id="Inter-Regular-71" d="M 3425 -1306 
L 3425 3494 
L 2881 3494 
L 2881 2934 
L 2819 2934 
C 2703 3119 2488 3538 1806 3538 
C 934 3538 325 2844 325 1738 
C 325 625 931 -75 1803 -75 
C 2469 -75 2703 347 2819 541 
L 2863 541 
L 2863 -1306 
L 3425 -1306 
z
M 1888 428 
C 1234 428 897 1009 897 1744 
C 897 2469 1225 3034 1888 3034 
C 2531 3034 2869 2516 2869 1744 
C 2869 966 2522 428 1888 428 
z
" transform="scale(0.015625)"/>
     <path id="Inter-Regular-75" d="M 1678 -44 
C 2138 -44 2519 144 2747 653 
L 2747 0 
L 3291 0 
L 3291 3494 
L 2725 3494 
L 2725 1400 
C 2725 803 2347 463 1847 463 
C 1359 463 1056 784 1056 1322 
L 1056 3494 
L 494 3494 
L 494 1275 
C 494 391 972 -44 1678 -44 
z
" transform="scale(0.015625)"/>
     <path id="Inter-Regular-61" d="M 1472 -81 
C 2063 -81 2391 228 2509 475 
L 2547 475 
L 2547 0 
L 3100 0 
L 3100 2303 
C 3100 3394 2259 3538 1791 3538 
C 1250 3538 650 3344 381 2709 
L 922 2531 
C 1031 2775 1303 3044 1806 3044 
C 2291 3044 2538 2794 2538 2359 
L 2538 2341 
C 2538 2081 2263 2100 1641 2022 
C 994 1941 281 1794 281 994 
C 281 306 809 -81 1472 -81 
z
M 1569 416 
C 1150 416 847 603 847 966 
C 847 1363 1206 1494 1616 1547 
C 1831 1575 2444 1638 2538 1747 
L 2538 1263 
C 2538 834 2191 416 1569 416 
z
" transform="scale(0.015625)"/>
     <path id="Inter-Regular-72" d="M 494 0 
L 1056 0 
L 1056 2188 
C 1056 2659 1425 3000 1928 3000 
C 2078 3000 2231 2975 2266 2969 
L 2266 3534 
C 2200 3538 2063 3544 1981 3544 
C 1566 3544 1203 3309 1075 2956 
L 1038 2956 
L 1038 3494 
L 494 3494 
L 494 0 
z
" transform="scale(0.015625)"/>
     <path id="Inter-Regular-74" d="M 1869 3494 
L 1150 3494 
L 1150 4325 
L 588 4325 
L 588 3494 
L 63 3494 
L 63 3013 
L 588 3013 
L 588 863 
C 588 291 944 -44 1547 -44 
C 1691 -44 1850 -22 1966 19 
L 1850 494 
C 1756 475 1634 456 1563 456 
C 1266 456 1150 594 1150 906 
L 1150 3013 
L 1869 3013 
L 1869 3494 
z
" transform="scale(0.015625)"/>
     <path id="Inter-Regular-65" d="M 1963 -75 
C 2678 -75 3200 284 3363 813 
L 2819 963 
C 2688 606 2378 425 1966 425 
C 1347 425 922 825 894 1556 
L 3419 1556 
L 3419 1791 
C 3419 3081 2638 3538 1897 3538 
C 944 3538 325 2791 325 1719 
C 325 644 950 -75 1963 -75 
z
M 897 2031 
C 931 2566 1297 3038 1897 3038 
C 2472 3038 2794 2625 2847 2031 
L 897 2031 
z
" transform="scale(0.015625)"/>
    </defs>
    <use xlink:href="#Inter-Regular-71"/>
    <use xlink:href="#Inter-Regular-75" transform="translate(61.230469 0)"/>
    <use xlink:href="#Inter-Regular-61" transform="translate(120.361328 0)"/>
    <use xlink:href="#Inter-Regular-72" transform="translate(176.513672 0)"/>
    <use xlink:href="#Inter-Regular-74" transform="translate(214.160156 0)"/>
    <use xlink:href="#Inter-Regular-65" transform="translate(246.875 0)"/>
    <use xlink:href="#Inter-Regular-72" transform="translate(305.175781 0)"/>
   </g>
  </g>
  <g id="patch_6">
   <path d="M 531.530625 161.376367 
L 547.370625 161.376367 
L 547.370625 145.536367 
L 531.530625 145.536367 
z
" clip-path="url(#pbfe1274310)" style="fill: #ffffff"/>
  </g>
  <g id="patch_7">
   <path d="M 531.530625 161.376367 
L 547.370625 161.376367 
L 547.370625 145.536367 
L 531.530625 145.536367 
z
" clip-path="url(#pbfe1274310)" style="fill: #2563eb"/>
  </g>
  <g id="text_14">
   <!-- Q1 -->
   <g transform="translate(551.210625 155.759492) scale(0.088 -0.088)">
    <use xlink:href="#Inter-Regular-51"/>
    <use xlink:href="#Inter-Regular-31" transform="translate(76.464844 0)"/>
   </g>
  </g>
  <g id="patch_8">
   <path d="M 531.530625 179.216367 
L 547.370625 179.216367 
L 547.370625 163.376367 
L 531.530625 163.376367 
z
" clip-path="url(#p46d2543836)" style="fill: #ffffff"/>
  </g>
  <g id="patch_9">
   <path d="M 531.530625 179.216367 
L 547.370625 179.216367 
L 547.370625 163.376367 
L 531.530625 163.376367 
z
" clip-path="url(#p46d2543836)" style="fill: #dc2626"/>
  </g>
  <g id="text_15">
   <!-- Q2 -->
   <g transform="translate(551.210625 173.599492) scale(0.088 -0.088)">
    <use xlink:href="#Inter-Regular-51"/>
    <use xlink:href="#Inter-Regular-32" transform="translate(76.464844 0)"/>
   </g>
  </g>
  <g id="patch_10">
   <path d="M 531.530625 197.056367 
L 547.370625 197.056367 
L 547.370625 181.216367 
L 531.530625 181.216367 
z
" clip-path="url(#p2747c6e324)" style="fill: #ffffff"/>
  </g>
  <g id="patch_11">
   <path d="M 531.530625 197.056367 
L 547.370625 197.056367 
L 547.370625 181.216367 
L 531.530625 181.216367 
z
" clip-path="url(#p2747c6e324)" style="fill: #059669"/>
  </g>
  <g id="text_16">
   <!-- Q3 -->
   <g transform="translate(551.210625 191.439492) scale(0.088 -0.088)">
    <use xlink:href="#Inter-Regular-51"/>
    <use xlink:href="#Inter-Regular-33" transform="translate(76.464844 0)"/>
   </g>
  </g>
  <g id="patch_12">
   <path d="M 531.530625 214.896367 
L 547.370625 214.896367 
L 547.370625 199.056367 
L 531.530625 199.056367 
z
" clip-path="url(#p2658856338)" style="fill: #ffffff"/>
  </g>
  <g id="patch_13">
   <path d="M 531.530625 214.896367 
L 547.370625 214.896367 
L 547.370625 199.056367 
L 531.530625 199.056367 
z
" clip-path="url(#p2658856338)" style="fill: #d97706"/>
  </g>
  <g id="text_17">
   <!-- Q4 -->
   <g transform="translate(551.210625 209.279492) scale(0.088 -0.088)">
    <use xlink:href="#Inter-Regular-51"/>
    <use xlink:href="#Inter-Regular-34" transform="translate(76.464844 0)"/>
   </g>
  </g>
 </g>
 <defs>
  <clipPath id="pc64a656f9e">
   <rect x="45.016461" y="25.349922" width="468.234164" height="297.685703"/>
  </clipPath>
  <clipPath id="pbfe1274310">
   <path d="M 531.530625 161.376367 
L 531.530625 145.536367 
L 547.370625 145.536367 
L 547.370625 161.376367 
"/>
  </clipPath>
  <clipPath id="p46d2543836">
   <path d="M 531.530625 179.216367 
L 531.530625 163.376367 
L 547.370625 163.376367 
L 547.370625 179.216367 
"/>
  </clipPath>
  <clipPath id="p2747c6e324">
   <path d="M 531.530625 197.056367 
L 531.530625 181.216367 
L 547.370625 181.216367 
L 547.370625 197.056367 
"/>
  </clipPath>
  <clipPath id="p2658856338">
   <path d="M 531.530625 214.896367 
L 531.530625 199.056367 
L 547.370625 199.056367 
L 547.370625 214.896367 
"/>
  </clipPath>
 </defs>
</svg>
